<svg width="133" height="140" viewBox="0 0 133 140" fill="none" xmlns="http://www.w3.org/2000/svg">
<path d="M126.22 0H6.08446C2.72946 0 0 3.08117 0 6.86848V133.132C0 136.919 2.72946 140 6.08446 140H126.22C129.575 140 132.305 136.919 132.305 133.132V6.86848C132.305 3.08117 129.575 0 126.22 0ZM6.08446 4.38413H126.22C127.434 4.38413 128.421 5.49858 128.421 6.86848V18.7056H3.8837V6.86848C3.8837 5.49858 4.87094 4.38413 6.08446 4.38413ZM126.22 135.616H6.08446C4.87094 135.616 3.8837 134.501 3.8837 133.132V23.0898H128.421V133.132C128.421 134.501 127.434 135.616 126.22 135.616Z" fill="#828080"/>
<path d="M10.227 14.3845C10.7371 14.3845 11.2394 14.1506 11.5992 13.7414C11.9617 13.3351 12.1689 12.7681 12.1689 12.1922C12.1689 11.6164 11.9617 11.0494 11.5992 10.6431C11.2394 10.2338 10.7397 10 10.227 10C9.71695 10 9.21466 10.2338 8.85477 10.6431C8.49229 11.0494 8.28516 11.6164 8.28516 12.1922C8.28516 12.7681 8.49229 13.3351 8.85477 13.7414C9.21466 14.1503 9.71695 14.3845 10.227 14.3845Z" fill="#828080"/>
<path d="M16.4409 14.3845C16.9509 14.3845 17.4532 14.1506 17.8131 13.7414C18.1756 13.3351 18.3827 12.7681 18.3827 12.1922C18.3827 11.6164 18.1756 11.0494 17.8131 10.6431C17.4532 10.2338 16.9535 10 16.4409 10C15.9308 10 15.4285 10.2338 15.0686 10.6431C14.7062 11.0494 14.499 11.6164 14.499 12.1922C14.499 12.7681 14.7062 13.3351 15.0686 13.7414C15.4285 14.1503 15.9308 14.3845 16.4409 14.3845Z" fill="#828080"/>
<path d="M22.6547 14.3845C23.1648 14.3845 23.6671 14.1506 24.027 13.7414C24.3895 13.3351 24.5966 12.7681 24.5966 12.1922C24.5966 11.6164 24.3895 11.0494 24.027 10.6431C23.6671 10.2338 23.1674 10 22.6547 10C22.1447 10 21.6424 10.2338 21.2825 10.6431C20.92 11.0494 20.7129 11.6164 20.7129 12.1922C20.7129 12.7681 20.92 13.3351 21.2825 13.7414C21.6424 14.1503 22.1447 14.3845 22.6547 14.3845Z" fill="#828080"/>
<path d="M55.6663 74.6762C55.6663 70.8889 52.9368 67.8077 49.5818 67.8077C46.9057 67.8077 44.6293 69.7689 43.8168 72.4841H32.5621C32.2784 71.536 31.8167 70.6805 31.2212 69.9679L34.0825 65.1228C34.358 65.155 34.6353 65.1772 34.9157 65.1772H47.5105C52.0076 65.1772 55.6663 61.0471 55.6663 55.9705V39.6031C55.6663 38.3925 54.7968 37.411 53.7244 37.411H21.7546L20.8121 35.3218C20.1503 33.7485 18.7323 32.7346 17.1868 32.7346H14.3696C13.2972 32.7346 12.4277 33.7161 12.4277 34.9267C12.4277 36.1373 13.2972 37.1188 14.3696 37.1188H17.1868C17.237 37.1188 17.2834 37.1521 17.3044 37.2035C17.315 37.2292 17.3259 37.2547 17.3372 37.2798L27.5276 59.8695C28.1588 61.3934 29.1406 62.6575 30.3311 63.572L27.7764 67.8977C27.4574 67.8393 27.1306 67.8077 26.7974 67.8077C23.4424 67.8077 20.713 70.8889 20.713 74.6762C20.713 78.4635 23.4424 81.5446 26.7974 81.5446C29.4736 81.5446 31.7499 79.5835 32.5624 76.8682H43.8171C44.6296 79.5835 46.9059 81.5446 49.5821 81.5446C52.9368 81.5446 55.6663 78.4635 55.6663 74.6762V74.6762ZM23.7324 41.7952H51.7826V55.9705C51.7826 58.6297 49.8661 60.7931 47.5105 60.7931H34.9159C33.2555 60.7931 31.7328 59.6932 31.0371 57.9913C31.0265 57.9659 31.0156 57.9405 31.0045 57.9153L23.7324 41.7952V41.7952ZM26.7974 77.1605C25.5839 77.1605 24.5967 76.0461 24.5967 74.6762C24.5967 73.3063 25.5839 72.1918 26.7974 72.1918C28.011 72.1918 28.9982 73.3063 28.9982 74.6762C28.9982 76.0461 28.011 77.1605 26.7974 77.1605ZM49.5818 77.1605C48.3683 77.1605 47.381 76.0461 47.381 74.6762C47.381 73.3063 48.3683 72.1918 49.5818 72.1918C50.7953 72.1918 51.7826 73.3063 51.7826 74.6762C51.7826 76.0461 50.7953 77.1605 49.5818 77.1605Z" fill="url(#paint0_linear_104_45)"/>
<path d="M78.5808 88.8521H53.7251C51.5121 88.8521 49.7119 90.8842 49.7119 93.3823V107.412C49.7119 109.91 51.5121 111.942 53.7251 111.942H78.5808C80.7937 111.942 82.5939 109.91 82.5939 107.412V93.3823C82.5939 90.8842 80.7937 88.8521 78.5808 88.8521ZM78.7102 107.412C78.7102 107.492 78.6522 107.558 78.5808 107.558H53.7251C53.6536 107.558 53.5956 107.492 53.5956 107.412V93.3823C53.5956 93.3017 53.6536 93.2362 53.7251 93.2362H78.5808C78.6522 93.2362 78.7102 93.3017 78.7102 93.3823V107.412Z" fill="#828080"/>
<path d="M41.2966 88.8521H16.4409C14.228 88.8521 12.4277 90.8842 12.4277 93.3823V107.412C12.4277 109.91 14.228 111.942 16.4409 111.942H41.2966C43.5095 111.942 45.3097 109.91 45.3097 107.412V93.3823C45.3097 90.8842 43.5095 88.8521 41.2966 88.8521ZM41.426 107.412C41.426 107.492 41.368 107.558 41.2966 107.558H16.4409C16.3694 107.558 16.3114 107.492 16.3114 107.412V93.3823C16.3114 93.3017 16.3694 93.2362 16.4409 93.2362H41.2966C41.368 93.2362 41.426 93.3017 41.426 93.3823V107.412Z" fill="#828080"/>
<path d="M115.864 88.8521H91.0083C88.7953 88.8521 86.9951 90.8842 86.9951 93.3823V107.412C86.9951 109.91 88.7953 111.942 91.0083 111.942H115.864C118.077 111.942 119.877 109.91 119.877 107.412V93.3823C119.877 90.8842 118.077 88.8521 115.864 88.8521ZM115.993 107.412C115.993 107.492 115.935 107.558 115.864 107.558H91.0083C90.9368 107.558 90.8788 107.492 90.8788 107.412V93.3823C90.8788 93.3017 90.9368 93.2362 91.0083 93.2362H115.864C115.935 93.2362 115.993 93.3017 115.993 93.3823V107.412Z" fill="#828080"/>
<path d="M43.3679 116.91H14.3696C13.2972 116.91 12.4277 117.892 12.4277 119.102C12.4277 120.313 13.2972 121.295 14.3696 121.295H43.3679C44.4403 121.295 45.3097 120.313 45.3097 119.102C45.3097 117.892 44.4403 116.91 43.3679 116.91Z" fill="#828080"/>
<path d="M80.6521 116.91H51.6538C50.5813 116.91 49.7119 117.892 49.7119 119.102C49.7119 120.313 50.5813 121.295 51.6538 121.295H80.6521C81.7245 121.295 82.5939 120.313 82.5939 119.102C82.5939 117.892 81.7245 116.91 80.6521 116.91Z" fill="#828080"/>
<path d="M117.935 116.91H88.937C87.8645 116.91 86.9951 117.892 86.9951 119.102C86.9951 120.313 87.8645 121.295 88.937 121.295H117.935C119.008 121.295 119.877 120.313 119.877 119.102C119.877 117.892 119.008 116.91 117.935 116.91Z" fill="#828080"/>
<path d="M103.436 126.263H88.937C87.8645 126.263 86.9951 127.245 86.9951 128.455C86.9951 129.666 87.8645 130.648 88.937 130.648H103.436C104.509 130.648 105.378 129.666 105.378 128.455C105.378 127.245 104.509 126.263 103.436 126.263Z" fill="#828080"/>
<path d="M66.1529 126.263H51.6538C50.5813 126.263 49.7119 127.245 49.7119 128.455C49.7119 129.666 50.5813 130.648 51.6538 130.648H66.1529C67.2253 130.648 68.0948 129.666 68.0948 128.455C68.0948 127.245 67.2253 126.263 66.1529 126.263Z" fill="#828080"/>
<path d="M28.8687 126.652H14.3696C13.2972 126.652 12.4277 127.633 12.4277 128.844C12.4277 130.055 13.2972 131.036 14.3696 131.036H28.8687C29.9412 131.036 30.8106 130.055 30.8106 128.844C30.8106 127.633 29.9412 126.652 28.8687 126.652Z" fill="#828080"/>
<path d="M69.4174 34.6933H88.0592C89.1316 34.6933 90.001 33.7118 90.001 32.5011C90.001 31.2904 89.1316 30.3088 88.0592 30.3088H69.4174C68.345 30.3088 67.4756 31.2904 67.4756 32.5011C67.4756 33.7118 68.345 34.6933 69.4174 34.6933Z" fill="#828080"/>
<path d="M119.129 39.6614H69.4174C68.345 39.6614 67.4756 40.6429 67.4756 41.8536C67.4756 43.0643 68.345 44.0459 69.4174 44.0459H119.129C120.201 44.0459 121.071 43.0643 121.071 41.8536C121.071 40.6429 120.201 39.6614 119.129 39.6614Z" fill="#828080"/>
<path d="M117.935 56.1169H78.5805C77.5081 56.1169 76.6387 57.0985 76.6387 58.3092C76.6387 59.5199 77.5081 60.5014 78.5805 60.5014H117.935C119.008 60.5014 119.877 59.5199 119.877 58.3092C119.877 57.0985 119.008 56.1169 117.935 56.1169Z" fill="#828080"/>
<path d="M117.935 65.47H78.5805C77.5081 65.47 76.6387 66.4515 76.6387 67.6622C76.6387 68.8729 77.5081 69.8544 78.5805 69.8544H117.935C119.008 69.8544 119.877 68.8729 119.877 67.6622C119.877 66.4515 119.008 65.47 117.935 65.47Z" fill="#828080"/>
<path d="M117.935 74.8225H78.5805C77.5081 74.8225 76.6387 75.804 76.6387 77.0147C76.6387 78.2254 77.5081 79.207 78.5805 79.207H117.935C119.008 79.207 119.877 78.2254 119.877 77.0147C119.877 75.804 119.008 74.8225 117.935 74.8225Z" fill="#828080"/>
<path d="M68.2241 60.5014H70.2954C71.3678 60.5014 72.2372 59.5199 72.2372 58.3092C72.2372 57.0985 71.3678 56.1169 70.2954 56.1169H68.2241C67.1517 56.1169 66.2822 57.0985 66.2822 58.3092C66.2822 59.5199 67.1517 60.5014 68.2241 60.5014Z" fill="#828080"/>
<path d="M68.2241 69.8544H70.2954C71.3678 69.8544 72.2372 68.8729 72.2372 67.6622C72.2372 66.4515 71.3678 65.47 70.2954 65.47H68.2241C67.1517 65.47 66.2822 66.4515 66.2822 67.6622C66.2822 68.8729 67.1517 69.8544 68.2241 69.8544Z" fill="#828080"/>
<path d="M68.2241 79.207H70.2954C71.3678 79.207 72.2372 78.2254 72.2372 77.0147C72.2372 75.804 71.3678 74.8225 70.2954 74.8225H68.2241C67.1517 74.8225 66.2822 75.804 66.2822 77.0147C66.2822 78.2254 67.1517 79.207 68.2241 79.207Z" fill="#828080"/>
<defs>
<linearGradient id="paint0_linear_104_45" x1="16.4998" y1="57" x2="62.4998" y2="57" gradientUnits="userSpaceOnUse">
<stop stop-color="#0A8EC9"/>
<stop offset="1" stop-color="#13AFB4"/>
</linearGradient>
</defs>
</svg>
