<svg width="203" height="380" viewBox="0 0 203 380" fill="none" xmlns="http://www.w3.org/2000/svg">
<path d="M180.616 7.99991C180.616 7.99991 180.324 89.418 179.811 231.978C179.369 354.773 179.321 368.035 179.321 368.035" stroke="url(#paint0_linear_338_85)" stroke-width="4"/>
<path d="M183.006 14.0764C179.851 15.5383 176.108 14.165 174.647 11.0089C173.185 7.85275 174.558 4.10907 177.713 2.64711C180.868 1.18515 184.611 2.55853 186.073 5.71463C187.534 8.87073 186.161 12.6144 183.006 14.0764Z" fill="#8B55E1"/>
<path d="M182.006 377.076C178.851 378.538 175.108 377.165 173.647 374.009C172.185 370.853 173.558 367.109 176.713 365.647C179.868 364.185 183.611 365.559 185.073 368.715C186.534 371.871 185.161 375.614 182.006 377.076Z" fill="#2F89FC"/>
<defs>
<linearGradient id="paint0_linear_338_85" x1="97.3966" y1="109.147" x2="110.543" y2="391.533" gradientUnits="userSpaceOnUse">
<stop stop-color="#8B55E1"/>
<stop offset="1" stop-color="#2F89FC"/>
</linearGradient>
</defs>
</svg>
