<?xml version="1.0" encoding="UTF-8" standalone="no"?>
<!-- Created with Inkscape (http://www.inkscape.org/) -->

<svg
   width="210mm"
   height="297mm"
   viewBox="0 0 210 297"
   version="1.1"
   id="svg3054"
   sodipodi:docname="logo.svg"
   inkscape:version="1.1.2 (b8e25be833, 2022-02-05)"
   xmlns:inkscape="http://www.inkscape.org/namespaces/inkscape"
   xmlns:sodipodi="http://sodipodi.sourceforge.net/DTD/sodipodi-0.dtd"
   xmlns="http://www.w3.org/2000/svg"
   xmlns:svg="http://www.w3.org/2000/svg">
  <sodipodi:namedview
     id="namedview3056"
     pagecolor="#ffffff"
     bordercolor="#666666"
     borderopacity="1.0"
     inkscape:pageshadow="2"
     inkscape:pageopacity="0.0"
     inkscape:pagecheckerboard="0"
     inkscape:document-units="mm"
     showgrid="false"
     inkscape:zoom="1.0289025"
     inkscape:cx="317.32841"
     inkscape:cy="325.58964"
     inkscape:window-width="3440"
     inkscape:window-height="1377"
     inkscape:window-x="-8"
     inkscape:window-y="-8"
     inkscape:window-maximized="1"
     inkscape:current-layer="layer1" />
  <defs
     id="defs3051" />
  <g
     inkscape:label="Layer 1"
     inkscape:groupmode="layer"
     id="layer1">
    <path
       text="WEB DEVELOPMENT"
       fill="#2b6c7e"
       space="preserve"
       text-anchor="middle"
       offset="0.5"
       font-scale="contain"
       font-size="48px"
       font-family="Padauk"
       letter-spacing="10"
       font-weight="400"
       font-style="normal"
       data-fl-textpath=""
       data-uid="o_f4hddmgga_4"
       d="m 64.097532,66.063318 h 0.746317 l -1.499323,5.043516 h -0.63421 l -1.161311,-4.196807 -1.16801,4.196807 h -0.62081 l -1.497662,-5.043516 h 0.744645 l 1.059236,4.000989 1.067614,-4.000989 h 0.838347 l 1.067603,4.000989 z m 6.271231,4.431055 v 0.612461 h -3.184408 v -5.043516 h 3.112454 v 0.612432 h -2.423024 v 1.552883 h 2.352743 v 0.595727 h -2.352743 v 1.670013 z m 5.760134,-0.870153 v 0 q 0,-0.414964 -0.326325,-0.64257 -0.324647,-0.227501 -0.945451,-0.227501 v 0 h -1.07429 v 1.740282 h 1.106084 q 0.54885,0 0.89358,-0.242718 0.346402,-0.242719 0.346402,-0.627516 z m -0.157319,-2.21218 v 0 q 0,-0.73629 -1.067597,-0.73629 v 0 h -1.12115 v 1.50604 h 1.106084 q 1.082663,0 1.082663,-0.76975 z m 0.838359,2.299206 v 0 q 0,0.595728 -0.453498,0.995655 -0.455177,0.399921 -1.067609,0.399921 v 0 h -2.195447 v -5.043515 h 2.023091 q 0.650943,0 1.082663,0.317935 0.431744,0.317935 0.431744,0.928712 v 0 q 0,0.399921 -0.262737,0.706174 -0.262738,0.30619 -0.609099,0.399922 v 0 q 0.440075,0.117106 0.746323,0.466864 0.304512,0.349757 0.304512,0.828332 z m 10.649895,-1.129529 v 0 q 0,-0.918673 -0.47022,-1.41232 -0.47022,-0.493653 -1.301873,-0.493653 v 0 h -0.886891 v 3.818623 h 0.886891 q 0.823287,0 1.296845,-0.501984 0.475254,-0.501985 0.475254,-1.410648 z m 0.697791,0 v 0 q 0,0.3832 -0.0736,0.732946 -0.07528,0.34808 -0.256026,0.682719 -0.179016,0.332978 -0.453499,0.575639 -0.276103,0.244281 -0.714524,0.388234 -0.440075,0.145689 -0.988949,0.145689 v 0 h -1.559502 v -5.043533 h 1.559572 q 0.691102,0 1.188088,0.207482 0.498686,0.207482 0.773094,0.572283 0.274425,0.364801 0.399921,0.796522 0.125554,0.431686 0.125554,0.942094 z m 5.831671,1.912656 v 0.612461 h -3.184408 v -5.043516 h 3.112449 v 0.612432 h -2.423001 v 1.552883 h 2.352743 v 0.595727 h -2.352743 v 1.670013 z m 5.830404,-4.431055 h 0.784812 l -1.788828,5.043516 h -0.776433 l -1.788826,-5.043516 h 0.791499 l 1.388894,4.141569 z m 6.317092,4.431055 v 0.612461 h -3.18435 v -5.043516 h 3.1125 v 0.612432 h -2.42307 v 1.552883 h 2.35276 v 0.595727 h -2.35276 v 1.670013 z m 5.64977,0 v 0.612461 h -2.925 v -5.043516 h 0.68927 v 4.431055 z m 6.13591,-2.008042 v 0 q 0,-0.885214 -0.34808,-1.395565 -0.34976,-0.510374 -1.20489,-0.510374 v 0 q -1.56786,0 -1.56786,1.905945 v 0 q 0,0.423354 0.0737,0.78146 0.0761,0.356412 0.24764,0.662671 0.17236,0.30619 0.49036,0.481907 0.31799,0.177338 0.75634,0.177338 0.44013,0 0.75801,-0.177338 0.31631,-0.175833 0.48197,-0.485263 0.16397,-0.311281 0.23924,-0.664296 0.0737,-0.353114 0.0737,-0.776468 z m 0.7296,0 v 0 q 0,0.746323 -0.23942,1.350417 -0.23913,0.604065 -0.76803,0.992311 -0.52871,0.388175 -1.27509,0.388175 -0.74471,0 -1.27506,-0.388175 -0.52883,-0.388234 -0.77652,-0.992311 -0.2459,-0.604094 -0.2459,-1.350417 v 0 q 0,-1.121139 0.58737,-1.818919 0.58899,-0.697808 1.71012,-0.697808 1.12287,0 1.70188,0.694435 0.58067,0.692792 0.58067,1.822292 z m 5.33634,-0.96385 v 0 q 0,-0.463508 -0.30121,-0.655953 -0.30283,-0.190761 -0.94547,-0.190761 v 0 h -0.75306 v 1.678408 h 0.75306 q 0.65087,0 0.94881,-0.189199 0.29786,-0.187347 0.29786,-0.642576 z m 0.67432,0 v 0 q 0,0.455119 -0.16073,0.756368 -0.16062,0.302891 -0.45842,0.443431 -0.29786,0.140539 -0.6041,0.192497 -0.30619,0.05034 -0.7212,0.05034 v 0 h -0.72965 v 2.141888 h -0.68935 V 66.06335 h 1.41904 q 0.32129,0 0.57564,0.02662 0.25603,0.02893 0.52206,0.122256 0.26772,0.09367 0.44332,0.247579 0.17757,0.1524 0.28952,0.423354 0.1141,0.269391 0.1141,0.639203 z m 7.80048,-1.459163 v 5.043516 h -0.69107 v -4.377518 l -1.61484,4.377518 h -0.54885 L 128.0154,66.76947 v 4.337364 h -0.68939 v -5.043516 h 1.10443 l 1.45915,4.071282 1.46759,-4.071282 z m 5.9878,4.431055 v 0.612461 h -3.1844 v -5.043516 h 3.11244 v 0.612432 h -2.42295 v 1.552883 h 2.35266 v 0.595727 h -2.35266 v 1.670013 z m 6.65365,-4.431055 v 5.043516 h -1.0124 l -2.22714,-4.126515 v 4.126515 h -0.68943 v -5.043516 h 0.98731 l 2.23562,4.141569 v -4.141569 z m 6.36395,0 v 0.612432 h -1.64654 v 4.431084 h -0.70613 V 66.67575 h -1.64832 v -0.612432 z"
       id="path1393"
       style="overflow:visible;stroke-width:0.167335" />
    <path
       text="Web Design Matrix"
       fill="#062d46"
       space="preserve"
       text-anchor="middle"
       offset="0.5"
       font-scale="contain"
       font-size="48px"
       font-family="Montserrat"
       font-weight="400"
       font-style="normal"
       stroke="#062d46"
       stroke-width="0.902294"
       data-fl-textpath=""
       data-uid="o_f4hddmgga_5"
       d="m 23.052528,42.767441 h 1.538405 l -5.111494,15.15852 H 17.79215 L 13.352864,44.996096 8.891023,57.925961 H 7.2217821 L 2.1147928,42.767441 h 1.6421763 l 4.3761278,13.03815 4.5249991,-13.03815 h 1.493295 l 4.461848,13.101286 z m 13.208674,9.465073 -0.01788,0.473698 h -9.52839 q 0.126405,1.777502 1.362464,2.869297 1.236143,1.096272 3.117423,1.096272 v 0 q 1.060195,0 1.948957,-0.378976 0.888765,-0.378977 1.538411,-1.118849 v 0 l 0.866202,0.997026 q -0.757922,0.911337 -1.894816,1.385035 -1.136897,0.478204 -2.499355,0.478204 v 0 q -1.754967,0 -3.108401,-0.748898 -1.35344,-0.744373 -2.111363,-2.066245 -0.757942,-1.321847 -0.757942,-2.986564 v 0 q 0,-1.669272 0.72635,-2.991119 0.72183,-1.321847 1.989556,-2.057233 1.267724,-0.735361 2.846737,-0.735361 v 0 q 1.583527,0 2.837716,0.735361 1.258696,0.735386 1.971511,2.048223 0.712811,1.30831 0.712811,3.000129 z m -5.522037,-4.461867 q -1.642174,0 -2.761027,1.051179 -1.114324,1.046672 -1.263204,2.738464 v 0 h 8.075535 q -0.153404,-1.691792 -1.267734,-2.738464 -1.114326,-1.051179 -2.78357,-1.051179 z m 14.532341,-1.321846 q 1.601576,0 2.900877,0.726352 1.299306,0.726327 2.034672,2.043695 0.739876,1.321847 0.739876,3.013666 v 0 q 0,1.687264 -0.739876,3.009135 -0.735366,1.321878 -2.034672,2.057236 -1.299301,0.735359 -2.900877,0.735359 v 0 q -1.430137,0 -2.567024,-0.604528 -1.13689,-0.609064 -1.827148,-1.754984 v 0 2.251229 h -1.47525 V 41.856101 H 40.9405 v 6.843926 q 0.712818,-1.105306 1.831658,-1.678278 1.114332,-0.572948 2.499348,-0.572948 z m -0.108304,10.22298 q 1.191024,0 2.165494,-0.554926 0.974488,-0.550412 1.524882,-1.569997 0.55492,-1.015067 0.55492,-2.314367 v 0 q 0,-1.2993 -0.55492,-2.318922 -0.550394,-1.019547 -1.524882,-1.569949 -0.97447,-0.550426 -2.165494,-0.550426 v 0 q -1.213585,0 -2.174532,0.550424 -0.96545,0.550401 -1.515855,1.569972 -0.554902,1.019622 -0.554902,2.318923 v 0 q 0,1.2993 0.554902,2.314367 0.550407,1.019598 1.515855,1.569998 0.960947,0.554926 2.174532,0.554926 z m 14.919431,1.25418 v -15.15852 h 6.171685 q 2.404613,0 4.245293,0.965439 1.840679,0.960965 2.86027,2.684336 1.015078,1.718873 1.015078,3.929485 v 0 q 0,2.210637 -1.015078,3.929484 -1.019591,1.723373 -2.86027,2.684335 -1.84068,0.965441 -4.245293,0.965441 v 0 z m 1.60156,-1.385011 H 66.1686 q 1.994063,0 3.487357,-0.789515 1.493306,-0.793994 2.314389,-2.18804 0.825601,-1.398573 0.825601,-3.216694 v 0 q 0,-1.818121 -0.825601,-3.21667 -0.821083,-1.394045 -2.314389,-2.188065 -1.493294,-0.789514 -3.487357,-0.789514 v 0 h -4.484407 z m 25.89944,-4.308436 -0.01794,0.473698 H 78.03747 q 0.126364,1.777502 1.362469,2.869297 1.236134,1.096272 3.117424,1.096272 v 0 q 1.060197,0 1.948946,-0.378976 0.888772,-0.378977 1.53843,-1.118849 v 0 l 0.866189,0.997026 q -0.75793,0.911337 -1.894812,1.385035 -1.136895,0.478204 -2.499358,0.478204 v 0 q -1.754956,0 -3.108399,-0.748898 -1.353368,-0.744373 -2.111286,-2.066245 -0.757929,-1.321847 -0.757929,-2.986564 v 0 q 0,-1.669272 0.726344,-2.991119 0.721837,-1.321847 1.989557,-2.057233 1.26773,-0.735361 2.846731,-0.735361 v 0 q 1.583537,0 2.837723,0.735361 1.258699,0.735386 1.97151,2.048223 0.712811,1.30831 0.712805,3.000129 z m -5.522038,-4.461867 q -1.642171,0 -2.761013,1.051179 -1.114341,1.046672 -1.263218,2.738464 v 0 h 8.075534 Q 85.959491,49.868498 84.845179,48.821826 83.730838,47.770647 82.061595,47.770647 Z M 93.77878,58.034244 q -1.385011,0 -2.652736,-0.401483 -1.267725,-0.401542 -1.980536,-1.006081 v 0 l 0.690257,-1.213563 q 0.717319,0.563893 1.800074,0.920316 1.082756,0.356411 2.251224,0.356411 v 0 q 1.560966,0 2.305362,-0.48723 0.748904,-0.487231 0.748904,-1.371476 v 0 q 0,-0.631607 -0.410568,-0.988039 -0.41508,-0.356382 -1.04215,-0.541369 -0.627099,-0.185056 -1.664724,-0.356406 v 0 q -1.389524,-0.261695 -2.23316,-0.532381 -0.843648,-0.270671 -1.439167,-0.920321 -0.595514,-0.64965 -0.595514,-1.795571 v 0 q 0,-1.430133 1.191033,-2.336938 1.191016,-0.911312 3.311414,-0.911312 v 0 q 1.105309,0 2.210619,0.293258 1.105314,0.293258 1.818126,0.766942 v 0 l -0.672212,1.236137 q -1.40757,-0.974476 -3.356533,-0.974476 v 0 q -1.470735,0 -2.219644,0.518821 -0.74439,0.518816 -0.74439,1.362462 v 0 q 0,0.64965 0.419535,1.042145 0.424049,0.388014 1.051176,0.572971 0.627093,0.185057 1.732397,0.378954 v 0 q 1.366988,0.261673 2.188064,0.518821 0.821095,0.261673 1.407582,0.888766 0.586494,0.6271 0.586494,1.732406 v 0 q 0,1.493298 -1.245166,2.373027 -1.245172,0.875227 -3.45579,0.875227 z m 7.53507,-0.10837 V 46.534396 h 1.5384 v 11.391478 z m 0.78048,-13.881795 q -0.47821,0 -0.80305,-0.324803 -0.32482,-0.324844 -0.32482,-0.780507 v 0 q 0,-0.43311 0.32482,-0.757936 0.32482,-0.324809 0.80305,-0.324809 v 0 q 0.4782,0 0.80303,0.315806 0.32482,0.315771 0.32482,0.748899 v 0 q 0,0.473726 -0.32482,0.79855 -0.32482,0.324809 -0.80303,0.324809 z m 14.11729,2.490317 h 1.47524 V 56.54084 q 0,2.900876 -1.42116,4.299426 -1.41656,1.394049 -4.27689,1.394049 v 0 q -1.57892,0 -2.99563,-0.464666 -1.42096,-0.464723 -2.30975,-1.290296 v 0 l 0.78036,-1.168468 q 0.8257,0.735359 2.00319,1.150428 1.18202,0.410509 2.48126,0.410509 v 0 q 2.16558,0 3.18055,-1.006057 1.01971,-1.01056 1.01971,-3.130958 v 0 -1.452678 q -0.71282,1.082733 -1.87238,1.646673 -1.15933,0.563952 -2.56696,0.563952 v 0 q -1.60154,0 -2.91439,-0.703803 -1.30839,-0.703779 -2.05724,-1.971501 -0.74441,-1.267719 -0.74441,-2.869296 v 0 q 0,-1.601577 0.74441,-2.855759 0.74885,-1.25871 2.04815,-1.948975 1.29939,-0.694747 2.92348,-0.694747 v 0 q 1.45266,0 2.62118,0.586489 1.16845,0.581982 1.88127,1.687289 v 0 z m -4.34904,9.595906 q 1.23163,0 2.22861,-0.532361 0.99699,-0.53236 1.54745,-1.48429 0.55499,-0.951903 0.55499,-2.165491 v 0 q 0,-1.213589 -0.55499,-2.151979 -0.55047,-0.942892 -1.53835,-1.475253 -0.98348,-0.527854 -2.23771,-0.527854 v 0 q -1.23622,0 -2.21963,0.518845 -0.98798,0.518816 -1.53856,1.47072 -0.55481,0.95193 -0.55481,2.165519 v 0 q 0,1.213588 0.55481,2.16549 0.55059,0.95193 1.53856,1.484293 0.98345,0.532361 2.21963,0.532361 z m 15.93809,-9.681617 q 2.14298,0 3.41068,1.245173 1.26325,1.245145 1.26325,3.627204 v 0 6.604789 h -1.53392 v -6.451374 q 0,-1.777528 -0.8887,-2.706883 -0.8888,-0.933887 -2.5355,-0.933887 v 0 q -1.84066,0 -2.90995,1.0963 -1.0737,1.091765 -1.0737,3.018169 v 0 5.977681 h -1.53836 v -11.39145 h 1.47517 v 2.102354 q 0.62714,-1.042141 1.7414,-1.615118 1.1143,-0.572948 2.58962,-0.572948 z m 29.27584,-3.681359 h 1.32187 v 15.158525 h -1.53849 V 45.799035 l -5.9551,10.200413 h -0.75792 L 144.19177,45.8622 v 12.063651 h -1.5384 V 42.767326 h 1.32187 l 6.5821,11.238072 z m 9.91625,3.681359 q 2.23308,0 3.42412,1.114315 1.19099,1.114341 1.19099,3.302406 v 0 7.060445 h -1.47515 v -1.777503 q -0.51882,0.88876 -1.525,1.389536 -1.00603,0.496256 -2.39112,0.496256 v 0 q -1.9082,0 -3.03158,-0.911314 -1.12784,-0.906812 -1.12784,-2.400109 v 0 q 0,-1.452705 1.05115,-2.341442 1.05115,-0.888765 3.34301,-0.888765 v 0 h 3.61817 v -0.690265 q 0,-1.475254 -0.82112,-2.242197 -0.82557,-0.766966 -2.40451,-0.766966 v 0 q -1.08278,0 -2.07986,0.356434 -0.99699,0.356406 -1.70982,0.983483 v 0 l -0.69471,-1.145912 q 0.86623,-0.735362 2.07974,-1.136863 1.21361,-0.40153 2.55356,-0.40153 z m -0.54144,10.371857 q 1.2993,0 2.23317,-0.595496 0.92936,-0.59552 1.38498,-1.71887 v 0 -1.863239 h -3.57304 q -2.92356,0 -2.92356,2.034662 v 0 q 0,0.997017 0.75798,1.569995 0.75797,0.572977 2.12047,0.572977 z m 14.79312,-0.69024 0.54138,1.100802 q -0.43319,0.392515 -1.07381,0.595496 -0.63601,0.207482 -1.3308,0.207482 v 0 q -1.60163,0 -2.46784,-0.866195 -0.86615,-0.866218 -0.86615,-2.445222 v 0 -6.88902 h -2.03463 v -1.299311 h 2.03465 v -2.490318 h 1.53839 v 2.490318 h 3.46477 v 1.2993 h -3.46477 v 6.79878 q 0,1.019596 0.50528,1.551951 0.50985,0.527848 1.46177,0.527848 v 0 q 0.47815,0 0.92028,-0.148756 0.44661,-0.153384 0.77151,-0.433132 z m 4.80834,-7.362719 q 0.54133,-1.150427 1.61056,-1.732409 1.07372,-0.586489 2.65277,-0.586489 v 0 1.493294 l -0.36543,-0.02309 q -1.80016,0 -2.81508,1.105306 -1.01966,1.105331 -1.01966,3.099402 v 0 5.801706 h -1.53846 v -11.39145 h 1.47532 z m 7.0351,9.158268 V 46.534396 h 1.53853 v 11.391455 z m 0.78056,-13.881772 q -0.47815,0 -0.80304,-0.324803 -0.32482,-0.324844 -0.32482,-0.780507 v 0 q 0,-0.43311 0.32482,-0.757936 0.32488,-0.324809 0.80304,-0.324809 v 0 q 0.47814,0 0.80304,0.315806 0.32482,0.315771 0.32482,0.748899 v 0 q 0,0.473726 -0.32482,0.79855 -0.32488,0.324809 -0.80304,0.324809 z m 14.05416,13.881772 h -1.75495 l -3.61376,-4.764097 -3.64078,4.764097 h -1.73233 l 4.50686,-5.846853 -4.2903,-5.544602 h 1.73246 l 3.42412,4.461843 3.41968,-4.461843 h 1.68739 l -4.28597,5.544602 z"
       id="path1395"
       style="overflow:visible" />
    <path
       d="m 91.806338,25.089696 -1.641691,2.040633 5.504178,5.504447 2.042734,-1.670327 c 1.006399,0.556499 2.067157,0.993805 3.167301,1.306043 l 0.28155,2.669102 h 4.8555 V 30.83838 h 4.28688 c 0.41786,1.171326 1.52669,2.017004 2.83984,2.017004 1.66826,0 3.02544,-1.357264 3.02544,-3.025481 0,-1.668242 -1.35718,-3.025507 -3.02544,-3.025507 -1.31315,0 -2.42195,0.845678 -2.83984,2.017005 h -4.28687 v -2.017005 h -1.00852 c -5.00491,0 -9.076451,-4.071535 -9.076451,-9.076466 0,-5.004907 4.071541,-9.0764429 9.076451,-9.0764429 h 1.00852 V 6.6344824 h 4.28688 c 0.41785,1.1713268 1.52668,2.0170047 2.83984,2.0170047 1.66826,0 3.02544,-1.3572908 3.02544,-3.025507 0,-1.6682157 -1.35718,-3.0254805 -3.02544,-3.0254805 -1.31316,0 -2.42196,0.8456519 -2.83984,2.0169787 h -4.28689 V 0.51626534 h -4.9469 L 100.8069,3.2071658 c -1.099883,0.317001 -2.158812,0.7592722 -3.161254,1.3197117 l -2.04064,-1.6417054 -5.506277,5.5041895 1.672159,2.0427434 c -0.556256,1.006392 -0.993531,2.067143 -1.305796,3.167303 l -2.669348,0.281536 v 7.785378 l 2.690889,0.262124 c 0.317009,1.100133 0.75926,2.1588 1.319705,3.16125 z m 0,0"
       fill="rgba(10, 142, 201, 1)"
       data-uid="o_f4hddmgga_7"
       id="path1397"
       style="overflow:visible;fill:#0a8ec9;fill-opacity:1;stroke-width:0.0672339" />
    <path
       d="m 119.19353,14.702449 c -1.31305,0 -2.42191,0.845677 -2.83977,2.017004 H 102.9904 v 2.016978 h 13.36336 c 0.41786,1.171327 1.52672,2.016979 2.83977,2.016979 1.66827,0 3.02555,-1.357239 3.02555,-3.02548 0,-1.668217 -1.35728,-3.025481 -3.02555,-3.025481 z m 0,0"
       fill="rgba(10, 142, 201, 1)"
       data-uid="o_f4hddmgga_8"
       id="path1399"
       style="overflow:visible;fill:#0a8ec9;fill-opacity:1;stroke-width:0.0672339" />
    <path
       d="m 119.42564,6.6431566 c -1.77258,-0.1328153 -3.25757,1.2716311 -3.25757,3.0168068 0,0.1256061 0.0226,0.2450328 0.037,0.3666526 l -3.30095,1.650353 h -8.73137 c -3.43783,0 -6.224855,2.78701 -6.224855,6.224829 0,3.245831 2.631285,5.87712 5.877115,5.87712 h 9.07911 l 3.30096,1.650353 c -0.0156,0.121487 -0.037,0.241174 -0.037,0.366624 0,1.745176 1.48498,3.149722 3.25756,3.016832 1.47952,-0.111193 2.67365,-1.305271 2.78472,-2.784667 0.13284,-1.772741 -1.27161,-3.257645 -3.01683,-3.257645 -0.81352,0 -1.55008,0.326446 -2.09415,0.850645 l -3.71846,-1.859148 h -9.38217 c -2.22786,0 -4.033971,-1.8061 -4.033971,-4.033982 0,-2.227884 1.806111,-4.033984 4.033971,-4.033984 h 9.38217 l 3.71833,-1.859147 c 0.54405,0.524196 1.28062,0.850671 2.09415,0.850671 1.74522,0 3.14978,-1.48493 3.01684,-3.2576715 -0.11063,-1.4793958 -1.30521,-2.6735526 -2.78472,-2.7846419 z m 0,0"
       fill="rgba(10, 142, 201, 1)"
       data-uid="o_f4hddmgga_9"
       id="path1401"
       style="overflow:visible;fill:#0a8ec9;fill-opacity:1;stroke-width:0.0672339" />
  </g>
</svg>
