<svg width="78" height="82" viewBox="0 0 78 82" fill="none" xmlns="http://www.w3.org/2000/svg">
<path d="M73.5043 0H3.58651C1.63393 0 0.0454102 1.79321 0.0454102 3.99738V77.4812C0.0454102 79.6853 1.63393 81.4786 3.58651 81.4786H73.5043C75.4569 81.4786 77.0454 79.6853 77.0454 77.4812V3.99738C77.0454 1.79321 75.4569 0 73.5043 0ZM3.58651 2.55152H73.5043C74.2106 2.55152 74.7851 3.20012 74.7851 3.99738V10.8865H2.30568V3.99738C2.30568 3.20012 2.88025 2.55152 3.58651 2.55152ZM73.5043 78.927H3.58651C2.88025 78.927 2.30568 78.2784 2.30568 77.4812V13.438H74.7851V77.4812C74.7851 78.2784 74.2106 78.927 73.5043 78.927Z" fill="#ACACAC"/>
<path d="M32.4427 43.4608C32.4427 41.2566 30.8542 39.4634 28.9016 39.4634C27.3441 39.4634 26.0193 40.6048 25.5465 42.1851H18.9963C18.8312 41.6332 18.5625 41.1354 18.2159 40.7207L19.8812 37.9009C20.0415 37.9196 20.2029 37.9325 20.3661 37.9325H27.6961C30.3134 37.9325 32.4427 35.5288 32.4427 32.5743V23.0487C32.4427 22.3441 31.9367 21.7729 31.3126 21.7729H12.7064L12.158 20.557C11.7728 19.6414 10.9475 19.0513 10.0481 19.0513H8.40846C7.78432 19.0513 7.27832 19.6225 7.27832 20.327C7.27832 21.0316 7.78432 21.6028 8.40846 21.6028H10.0481C10.0773 21.6028 10.1043 21.6222 10.1165 21.6521C10.1226 21.6671 10.129 21.6819 10.1356 21.6965L16.0663 34.8435C16.4336 35.7304 17.005 36.4661 17.6979 36.9983L16.2111 39.5158C16.0254 39.4818 15.8353 39.4634 15.6413 39.4634C13.6888 39.4634 12.1002 41.2566 12.1002 43.4608C12.1002 45.665 13.6888 47.4582 15.6413 47.4582C17.1988 47.4582 18.5236 46.3168 18.9965 44.7366H25.5466C26.0195 46.3168 27.3443 47.4582 28.9018 47.4582C30.8542 47.4582 32.4427 45.665 32.4427 43.4608V43.4608ZM13.8575 24.3244H30.1824V32.5743C30.1824 34.1219 29.0671 35.381 27.6961 35.381H20.3662C19.3999 35.381 18.5137 34.7409 18.1088 33.7504C18.1026 33.7356 18.0963 33.7208 18.0898 33.7062L13.8575 24.3244V24.3244ZM15.6413 44.9067C14.9351 44.9067 14.3605 44.2581 14.3605 43.4608C14.3605 42.6636 14.9351 42.015 15.6413 42.015C16.3476 42.015 16.9222 42.6636 16.9222 43.4608C16.9222 44.2581 16.3476 44.9067 15.6413 44.9067ZM28.9016 44.9067C28.1953 44.9067 27.6208 44.2581 27.6208 43.4608C27.6208 42.6636 28.1953 42.015 28.9016 42.015C29.6079 42.015 30.1824 42.6636 30.1824 43.4608C30.1824 44.2581 29.6079 44.9067 28.9016 44.9067Z" fill="#ACACAC"/>
<path d="M45.7784 51.7109H31.3127C30.0248 51.7109 28.9771 52.8937 28.9771 54.3475V62.5124C28.9771 63.9662 30.0248 65.1489 31.3127 65.1489H45.7784C47.0663 65.1489 48.114 63.9662 48.114 62.5124V54.3475C48.114 52.8937 47.0663 51.7109 45.7784 51.7109ZM45.8538 62.5124C45.8538 62.5593 45.82 62.5974 45.7784 62.5974H31.3127C31.2711 62.5974 31.2373 62.5593 31.2373 62.5124V54.3475C31.2373 54.3006 31.2711 54.2625 31.3127 54.2625H45.7784C45.82 54.2625 45.8538 54.3006 45.8538 54.3475V62.5124Z" fill="#ACACAC"/>
<path d="M24.0797 51.7109H9.61394C8.32603 51.7109 7.27832 52.8937 7.27832 54.3475V62.5124C7.27832 63.9662 8.32603 65.1489 9.61394 65.1489H24.0797C25.3676 65.1489 26.4153 63.9662 26.4153 62.5124V54.3475C26.4153 52.8937 25.3676 51.7109 24.0797 51.7109ZM24.155 62.5124C24.155 62.5593 24.1213 62.5974 24.0797 62.5974H9.61394C9.57235 62.5974 9.53859 62.5593 9.53859 62.5124V54.3475C9.53859 54.3006 9.57235 54.2625 9.61394 54.2625H24.0797C24.1213 54.2625 24.155 54.3006 24.155 54.3475V62.5124Z" fill="#ACACAC"/>
<path d="M67.4771 51.7109H53.0114C51.7235 51.7109 50.6758 52.8937 50.6758 54.3475V62.5124C50.6758 63.9662 51.7235 65.1489 53.0114 65.1489H67.4771C68.7651 65.1489 69.8128 63.9662 69.8128 62.5124V54.3475C69.8128 52.8937 68.7651 51.7109 67.4771 51.7109ZM67.5525 62.5124C67.5525 62.5593 67.5187 62.5974 67.4771 62.5974H53.0114C52.9698 62.5974 52.9361 62.5593 52.9361 62.5124V54.3475C52.9361 54.3006 52.9698 54.2625 53.0114 54.2625H67.4771C67.5187 54.2625 67.5525 54.3006 67.5525 54.3475V62.5124Z" fill="#ACACAC"/>
<path d="M25.2852 68.0405H8.40846C7.78432 68.0405 7.27832 68.6118 7.27832 69.3164C7.27832 70.021 7.78432 70.5922 8.40846 70.5922H25.2852C25.9093 70.5922 26.4153 70.021 26.4153 69.3164C26.4153 68.6118 25.9093 68.0405 25.2852 68.0405Z" fill="#ACACAC"/>
<path d="M46.9839 68.0405H30.1072C29.4831 68.0405 28.9771 68.6118 28.9771 69.3164C28.9771 70.021 29.4831 70.5922 30.1072 70.5922H46.9839C47.608 70.5922 48.114 70.021 48.114 69.3164C48.114 68.6118 47.608 68.0405 46.9839 68.0405Z" fill="#ACACAC"/>
<path d="M68.6826 68.0405H51.8059C51.1818 68.0405 50.6758 68.6118 50.6758 69.3164C50.6758 70.021 51.1818 70.5922 51.8059 70.5922H68.6826C69.3068 70.5922 69.8128 70.021 69.8128 69.3164C69.8128 68.6118 69.3068 68.0405 68.6826 68.0405Z" fill="#ACACAC"/>
<path d="M60.2443 73.4839H51.8059C51.1818 73.4839 50.6758 74.0551 50.6758 74.7597C50.6758 75.4644 51.1818 76.0356 51.8059 76.0356H60.2443C60.8684 76.0356 61.3744 75.4644 61.3744 74.7597C61.3744 74.0551 60.8684 73.4839 60.2443 73.4839Z" fill="#ACACAC"/>
<path d="M38.5455 73.4839H30.1072C29.4831 73.4839 28.9771 74.0551 28.9771 74.7597C28.9771 75.4644 29.4831 76.0356 30.1072 76.0356H38.5455C39.1697 76.0356 39.6757 75.4644 39.6757 74.7597C39.6757 74.0551 39.1697 73.4839 38.5455 73.4839Z" fill="#ACACAC"/>
<path d="M16.8468 73.4839H8.40846C7.78432 73.4839 7.27832 74.0551 7.27832 74.7597C7.27832 75.4644 7.78432 76.0356 8.40846 76.0356H16.8468C17.471 76.0356 17.977 75.4644 17.977 74.7597C17.977 74.0551 17.471 73.4839 16.8468 73.4839Z" fill="#ACACAC"/>
<path d="M40.4456 20.1914H51.2949C51.919 20.1914 52.425 19.6201 52.425 18.9155C52.425 18.2109 51.919 17.6396 51.2949 17.6396H40.4456C39.8214 17.6396 39.3154 18.2109 39.3154 18.9155C39.3154 19.6201 39.8214 20.1914 40.4456 20.1914Z" fill="#ACACAC"/>
<path d="M69.3771 23.0825H40.4456C39.8214 23.0825 39.3154 23.6538 39.3154 24.3584C39.3154 25.063 39.8214 25.6342 40.4456 25.6342H69.3771C70.0012 25.6342 70.5072 25.063 70.5072 24.3584C70.5072 23.6538 70.0012 23.0825 69.3771 23.0825Z" fill="#ACACAC"/>
<path d="M68.6827 32.6592H45.7786C45.1544 32.6592 44.6484 33.2304 44.6484 33.935C44.6484 34.6397 45.1544 35.2109 45.7786 35.2109H68.6827C69.3068 35.2109 69.8128 34.6397 69.8128 33.935C69.8128 33.2304 69.3068 32.6592 68.6827 32.6592Z" fill="#ACACAC"/>
<path d="M68.6827 38.1025H45.7786C45.1544 38.1025 44.6484 38.6738 44.6484 39.3784C44.6484 40.083 45.1544 40.6543 45.7786 40.6543H68.6827C69.3068 40.6543 69.8128 40.083 69.8128 39.3784C69.8128 38.6738 69.3068 38.1025 68.6827 38.1025Z" fill="#ACACAC"/>
<path d="M68.6827 43.5459H45.7786C45.1544 43.5459 44.6484 44.1171 44.6484 44.8218C44.6484 45.5264 45.1544 46.0976 45.7786 46.0976H68.6827C69.3068 46.0976 69.8128 45.5264 69.8128 44.8218C69.8128 44.1171 69.3068 43.5459 68.6827 43.5459Z" fill="#ACACAC"/>
<path d="M39.7512 35.2109H40.9567C41.5808 35.2109 42.0868 34.6397 42.0868 33.935C42.0868 33.2304 41.5808 32.6592 40.9567 32.6592H39.7512C39.1271 32.6592 38.6211 33.2304 38.6211 33.935C38.6211 34.6397 39.1271 35.2109 39.7512 35.2109Z" fill="#ACACAC"/>
<path d="M39.7512 40.6543H40.9567C41.5808 40.6543 42.0868 40.083 42.0868 39.3784C42.0868 38.6738 41.5808 38.1025 40.9567 38.1025H39.7512C39.1271 38.1025 38.6211 38.6738 38.6211 39.3784C38.6211 40.083 39.1271 40.6543 39.7512 40.6543Z" fill="#ACACAC"/>
<path d="M39.7512 46.0976H40.9567C41.5808 46.0976 42.0868 45.5264 42.0868 44.8218C42.0868 44.1171 41.5808 43.5459 40.9567 43.5459H39.7512C39.1271 43.5459 38.6211 44.1171 38.6211 44.8218C38.6211 45.5264 39.1271 46.0976 39.7512 46.0976Z" fill="#ACACAC"/>
</svg>
