<svg width="83" height="80" viewBox="0 0 83 80" fill="none" xmlns="http://www.w3.org/2000/svg">
<path d="M41.1327 29.9349C35.4242 29.9349 30.7935 34.4594 30.7935 40.0004C30.7935 45.5414 35.4242 50.0659 41.1327 50.0659C46.8412 50.0659 51.4719 45.5414 51.4719 40.0004C51.4719 34.4594 46.8412 29.9349 41.1327 29.9349ZM47.4305 40.0004C47.4305 43.3774 44.6016 46.1315 41.1327 46.1315C37.6638 46.1315 34.8349 43.3774 34.8349 40.0004C34.8349 36.6234 37.6638 33.8693 41.1327 33.8693C44.6016 33.8693 47.4305 36.6234 47.4305 40.0004Z" fill="#858585"/>
<path d="M39.1118 54.5737C39.1118 55.6557 40.0211 56.541 41.1325 56.541C42.2439 56.541 43.1532 55.6557 43.1532 54.5737C43.1532 53.4916 42.2439 52.6063 41.1325 52.6063C40.0211 52.6063 39.1118 53.4916 39.1118 54.5737Z" fill="#858585"/>
<path d="M41.1325 62.9844C42.2439 62.9844 43.1532 62.0991 43.1532 61.017C43.1532 59.935 42.2439 59.0497 41.1325 59.0497C40.0211 59.0497 39.1118 59.935 39.1118 61.017C39.1118 62.0991 40.0211 62.9844 41.1325 62.9844Z" fill="#858585"/>
<path d="M41.1326 65.4919C37.0238 65.4919 33.6729 68.7542 33.6729 72.7541C33.6729 76.7541 37.0238 80 41.1326 80C45.2413 80 48.5923 76.7377 48.5923 72.7377C48.5923 68.7378 45.2413 65.4919 41.1326 65.4919ZM44.5509 72.7377C44.5509 74.5738 43.0186 76.0656 41.1326 76.0656C39.2466 76.0656 37.7142 74.5738 37.7142 72.7377C37.7142 70.9017 39.2466 69.4099 41.1326 69.4099C43.0186 69.4099 44.5509 70.9181 44.5509 72.7377Z" fill="#858585"/>
<path d="M43.1532 18.9838C43.1532 17.8973 42.2485 17.0165 41.1325 17.0165C40.0165 17.0165 39.1118 17.8973 39.1118 18.9838C39.1118 20.0704 40.0165 20.9512 41.1325 20.9512C42.2485 20.9512 43.1532 20.0704 43.1532 18.9838Z" fill="#858585"/>
<path d="M43.1532 25.4262C43.1532 24.3442 42.2439 23.4588 41.1325 23.4588C40.0211 23.4588 39.1118 24.3442 39.1118 25.4262C39.1118 26.5082 40.0211 27.3936 41.1325 27.3936C42.2439 27.3936 43.1532 26.5082 43.1532 25.4262Z" fill="#858585"/>
<path d="M33.6729 7.26215C33.6729 11.2621 37.0238 14.5244 41.1326 14.5244C45.2413 14.5244 48.5923 11.2621 48.5923 7.26215C48.5923 3.26217 45.2413 -0.000101519 41.1326 -0.000101582C37.0238 -0.000101645 33.6729 3.26217 33.6729 7.26215ZM44.5509 7.26215C44.5509 9.09821 43.0186 10.59 41.1326 10.59C39.2466 10.59 37.7142 9.09821 37.7142 7.26215C37.7142 5.4261 39.2466 3.9343 41.1326 3.9343C43.0186 3.9343 44.5509 5.4261 44.5509 7.26215Z" fill="#858585"/>
<path d="M54.0825 39.9999C54.0825 41.082 54.9918 41.9673 56.1032 41.9673C57.2146 41.9673 58.1239 41.082 58.1239 39.9999C58.1239 38.9179 57.2146 38.0326 56.1032 38.0326C54.9918 38.0326 54.0825 38.9179 54.0825 39.9999Z" fill="#858585"/>
<path d="M60.7002 39.9999C60.7002 41.082 61.6095 41.9673 62.7209 41.9673C63.8323 41.9673 64.7416 41.082 64.7416 39.9999C64.7416 38.9179 63.8323 38.0326 62.7209 38.0326C61.6095 38.0326 60.7002 38.9179 60.7002 39.9999Z" fill="#858585"/>
<path d="M67.3179 40.0004C67.3179 44.0004 70.6689 47.2627 74.7776 47.2627C78.8864 47.2627 82.2205 44.0004 82.2205 40.0004C82.2205 36.0005 78.8695 32.7382 74.7608 32.7382C70.652 32.7382 67.3179 36.0005 67.3179 40.0004ZM78.1791 40.0004C78.1791 41.8365 76.6468 43.3283 74.7608 43.3283C72.8748 43.3283 71.3424 41.8365 71.3424 40.0004C71.3424 38.1644 72.8748 36.6726 74.7608 36.6726C76.6468 36.6726 78.1791 38.1644 78.1791 40.0004Z" fill="#858585"/>
<path d="M28.1835 39.9999C28.1835 38.9179 27.2742 38.0326 26.1628 38.0326C25.0514 38.0326 24.1421 38.9179 24.1421 39.9999C24.1421 41.082 25.0514 41.9673 26.1628 41.9673C27.2742 41.9673 28.1835 41.082 28.1835 39.9999Z" fill="#858585"/>
<path d="M21.5658 39.9999C21.5658 38.9134 20.6611 38.0326 19.5451 38.0326C18.4291 38.0326 17.5244 38.9134 17.5244 39.9999C17.5244 41.0865 18.4291 41.9673 19.5451 41.9673C20.6611 41.9673 21.5658 41.0865 21.5658 39.9999Z" fill="#858585"/>
<path d="M14.9481 40.0004C14.9481 36.0005 11.5971 32.7382 7.48832 32.7382C3.37956 32.7382 0.0454103 36.0005 0.0454102 40.0004C0.0454102 44.0004 3.3964 47.2627 7.50515 47.2627C11.6139 47.2627 14.9481 44.0004 14.9481 40.0004ZM4.08681 40.0004C4.08681 38.1644 5.61917 36.6726 7.50515 36.6726C9.39114 36.6726 10.9235 38.1644 10.9235 40.0004C10.9235 41.8365 9.39114 43.3283 7.50515 43.3283C5.61917 43.3283 4.08681 41.8365 4.08681 40.0004Z" fill="#858585"/>
<path d="M50.2938 51.6887C51.0852 52.4592 52.365 52.4592 53.1564 51.6887C53.9479 50.9181 53.9479 49.6722 53.1564 48.9016C52.365 48.1311 51.0852 48.1311 50.2938 48.9016C49.5023 49.6885 49.5023 50.9345 50.2938 51.6887Z" fill="#858585"/>
<path d="M58.41 54.852C58.41 53.7654 57.5054 52.8846 56.3894 52.8846C55.2733 52.8846 54.3687 53.7654 54.3687 54.852C54.3687 55.9385 55.2733 56.8193 56.3894 56.8193C57.5054 56.8193 58.41 55.9385 58.41 54.852Z" fill="#858585"/>
<path d="M59.639 68.2792C62.5522 71.1153 67.2672 71.1153 70.1804 68.2792C73.0935 65.4432 73.0935 60.853 70.1804 58.017C67.2672 55.1809 62.5522 55.1809 59.639 58.017C56.7427 60.853 56.7427 65.4596 59.639 68.2792ZM67.3345 60.8038C68.6648 62.0989 68.6648 64.1973 67.3345 65.4923C66.0042 66.7874 63.8488 66.7874 62.5185 65.4923C61.1883 64.1973 61.1883 62.0989 62.5185 60.8038C63.832 59.5088 66.0042 59.5088 67.3345 60.8038Z" fill="#858585"/>
<path d="M27.8974 25.1484C27.8974 24.0618 26.9927 23.181 25.8767 23.181C24.7607 23.181 23.856 24.0618 23.856 25.1484C23.856 26.2349 24.7607 27.1157 25.8767 27.1157C26.9927 27.1157 27.8974 26.2349 27.8974 25.1484Z" fill="#858585"/>
<path d="M32.5619 29.6889C32.5619 28.6024 31.6572 27.7215 30.5412 27.7215C29.4252 27.7215 28.5205 28.6024 28.5205 29.6889C28.5205 30.7754 29.4252 31.6563 30.5412 31.6563C31.6572 31.6563 32.5619 30.7754 32.5619 29.6889Z" fill="#858585"/>
<path d="M22.6266 11.722C19.7134 8.886 14.9984 8.886 12.0853 11.722C9.1721 14.5581 9.1721 19.1482 12.0853 21.9843C14.9984 24.8203 19.7134 24.8203 22.6266 21.9843C25.5398 19.1482 25.5229 14.5417 22.6266 11.722ZM14.9311 19.1974C13.6008 17.9023 13.6008 15.804 14.9311 14.5089C16.2614 13.2138 18.4168 13.2138 19.7471 14.5089C21.0774 15.804 21.0774 17.9023 19.7471 19.1974C18.4336 20.4925 16.2614 20.4925 14.9311 19.1974Z" fill="#858585"/>
<path d="M58.41 25.1484C58.41 24.0618 57.5054 23.181 56.3894 23.181C55.2733 23.181 54.3687 24.0618 54.3687 25.1484C54.3687 26.2349 55.2733 27.1157 56.3894 27.1157C57.5054 27.1157 58.41 26.2349 58.41 25.1484Z" fill="#858585"/>
<path d="M50.2938 31.0822C51.0852 31.8528 52.365 31.8528 53.1564 31.0822C53.9479 30.3117 53.9479 29.0657 53.1564 28.2952C52.365 27.5246 51.0852 27.5246 50.2938 28.2952C49.5023 29.0657 49.5023 30.3117 50.2938 31.0822Z" fill="#858585"/>
<path d="M59.639 21.9843C62.5522 24.8203 67.2672 24.8203 70.1804 21.9843C73.0935 19.1482 73.0935 14.5581 70.1804 11.722C67.2672 8.886 62.5522 8.886 59.639 11.722C56.7427 14.5417 56.7427 19.1482 59.639 21.9843ZM67.3345 14.4925C68.6648 15.7876 68.6648 17.886 67.3345 19.181C66.0042 20.4761 63.8488 20.4761 62.5185 19.181C61.1883 17.886 61.1883 15.7876 62.5185 14.4925C63.832 13.1975 66.0042 13.1975 67.3345 14.4925Z" fill="#858585"/>
<path d="M32.5619 50.3115C32.5619 49.2249 31.6572 48.3441 30.5412 48.3441C29.4252 48.3441 28.5205 49.2249 28.5205 50.3115C28.5205 51.398 29.4252 52.2788 30.5412 52.2788C31.6572 52.2788 32.5619 51.398 32.5619 50.3115Z" fill="#858585"/>
<path d="M27.8974 54.852C27.8974 53.7654 26.9927 52.8846 25.8767 52.8846C24.7607 52.8846 23.856 53.7654 23.856 54.852C23.856 55.9385 24.7607 56.8193 25.8767 56.8193C26.9927 56.8193 27.8974 55.9385 27.8974 54.852Z" fill="#858585"/>
<path d="M22.6266 58.017C19.7134 55.1809 14.9984 55.1809 12.0853 58.017C9.1721 60.853 9.1721 65.4432 12.0853 68.2792C14.9984 71.1153 19.7134 71.1153 22.6266 68.2792C25.5229 65.4596 25.5229 60.853 22.6266 58.017ZM14.9311 65.5087C13.6008 64.2137 13.6008 62.1153 14.9311 60.8202C16.2614 59.5252 18.4168 59.5252 19.7471 60.8202C21.0774 62.1153 21.0774 64.2137 19.7471 65.5087C18.4336 66.8038 16.2614 66.8038 14.9311 65.5087Z" fill="#858585"/>
</svg>
