<svg width="90" height="92" viewBox="0 0 90 92" fill="none" xmlns="http://www.w3.org/2000/svg">
<path d="M84.375 10.8291H5.625C5.25203 10.8291 4.89435 10.9798 4.63063 11.2481C4.36691 11.5164 4.21875 11.8802 4.21875 12.2596V69.4795C4.21875 69.8588 4.36691 70.2226 4.63063 70.491C4.89435 70.7592 5.25203 70.91 5.625 70.91H52.9594C53.2339 70.9118 53.5028 70.832 53.7332 70.6802C53.9636 70.5286 54.1453 70.3116 54.2559 70.0561C54.3665 69.8006 54.4012 69.5178 54.3558 69.2424C54.3104 68.9672 54.1866 68.7114 54 68.5067C53.8673 68.3611 53.7062 68.2452 53.5271 68.1664C53.3479 68.0876 53.1546 68.0475 52.9594 68.049H7.03125V27.9951H82.9688V68.049H75.9375C75.6643 68.0498 75.3972 68.1316 75.169 68.2844C74.9408 68.4372 74.7612 68.6544 74.6523 68.9093C74.5434 69.1642 74.5099 69.446 74.5557 69.7199C74.6017 69.9939 74.7252 70.2484 74.9109 70.4522C75.042 70.596 75.2009 70.7108 75.3774 70.7895C75.554 70.8683 75.7447 70.9092 75.9375 70.91H84.375C84.7479 70.91 85.1057 70.7592 85.3694 70.491C85.633 70.2226 85.7813 69.8588 85.7813 69.4795V12.2596C85.7813 11.8802 85.633 11.5164 85.3694 11.2481C85.1057 10.9798 84.7479 10.8291 84.375 10.8291ZM82.9688 25.1341H7.03125V13.6901H82.9688V25.1341Z" fill="#858585"/>
<path d="M14.7656 21.5576C15.9306 21.5576 16.875 20.5969 16.875 19.4119C16.875 18.2267 15.9306 17.2661 14.7656 17.2661C13.6006 17.2661 12.6562 18.2267 12.6562 19.4119C12.6562 20.5969 13.6006 21.5576 14.7656 21.5576Z" fill="#858585"/>
<path d="M21.0938 21.5576C22.2587 21.5576 23.2031 20.5969 23.2031 19.4119C23.2031 18.2267 22.2587 17.2661 21.0938 17.2661C19.9288 17.2661 18.9844 18.2267 18.9844 19.4119C18.9844 20.5969 19.9288 21.5576 21.0938 21.5576Z" fill="#858585"/>
<path d="M27.4219 21.5576C28.5868 21.5576 29.5312 20.5969 29.5312 19.4119C29.5312 18.2267 28.5868 17.2661 27.4219 17.2661C26.2569 17.2661 25.3125 18.2267 25.3125 19.4119C25.3125 20.5969 26.2569 21.5576 27.4219 21.5576Z" fill="#858585"/>
<path d="M49.2188 20.8424H77.3438C77.7167 20.8424 78.0744 20.6917 78.3381 20.4234C78.6018 20.1551 78.75 19.7913 78.75 19.4119C78.75 19.0326 78.6018 18.6687 78.3381 18.4004C78.0744 18.1321 77.7167 17.9814 77.3438 17.9814H49.2188C48.8458 17.9814 48.4881 18.1321 48.2244 18.4004C47.9607 18.6687 47.8125 19.0326 47.8125 19.4119C47.8125 19.7913 47.9607 20.1551 48.2244 20.4234C48.4881 20.6917 48.8458 20.8424 49.2188 20.8424Z" fill="#858585"/>
<path d="M59.1609 57.3202C60.9366 54.5557 61.8799 51.3241 61.875 48.0219C61.875 44.6268 60.8852 41.3079 59.031 38.485C57.1768 35.662 54.5412 33.4619 51.4577 32.1626C48.3743 30.8634 44.9813 30.5234 41.7078 31.1859C38.4343 31.8482 35.4276 33.4831 33.0675 35.8838C30.7075 38.2844 29.1003 41.3431 28.4492 44.673C27.7982 48.0029 28.1323 51.4544 29.4096 54.5911C30.6867 57.7277 32.8497 60.4086 35.6248 62.2949C38.3999 64.1811 41.6624 65.1879 45 65.1879C47.7791 65.1912 50.5153 64.4881 52.9593 63.1423L67.6125 79.3212C67.9847 79.7459 68.4362 80.0911 68.9408 80.3367C69.4454 80.5823 69.9928 80.7234 70.5515 80.7517H70.7343C71.8533 80.7517 72.9263 80.2995 73.7174 79.4947C74.5086 78.6899 74.9531 77.5983 74.9531 76.4602C74.9431 75.3996 74.5472 74.3804 73.8421 73.5992L59.1609 57.3202ZM45 62.3269C42.2187 62.3269 39.4998 61.4879 37.1873 59.9161C34.8747 58.3443 33.0723 56.1101 32.0079 53.4962C30.9435 50.8822 30.6651 48.0061 31.2077 45.2312C31.7503 42.4563 33.0896 39.9073 35.0562 37.9068C37.023 35.9062 39.5287 34.5438 42.2565 33.9918C44.9844 33.4399 47.8119 33.7231 50.3814 34.8059C52.951 35.8886 55.1473 37.7221 56.6925 40.0745C58.2377 42.427 59.0625 45.1927 59.0625 48.0219C59.0625 51.8158 57.5808 55.4544 54.9437 58.137C52.3064 60.8197 48.7296 62.3269 45 62.3269ZM71.7187 77.4902C71.5822 77.6167 71.4226 77.7147 71.2489 77.7785C71.0751 77.8423 70.8907 77.8707 70.7062 77.8621C70.3341 77.8418 69.9851 77.672 69.7359 77.39L55.35 61.5115C56.0856 60.9161 56.7766 60.2658 57.4172 59.566L71.7187 75.4588C71.8505 75.5917 71.9551 75.75 72.0265 75.9243C72.098 76.0987 72.1347 76.2857 72.1347 76.4745C72.1347 76.6633 72.098 76.8503 72.0265 77.0247C71.9551 77.1989 71.8505 77.3571 71.7187 77.4902Z" fill="#858585"/>
<path d="M52.5 43C51.8323 43 51.2044 43.2611 50.7323 43.7352C50.5231 43.9452 50.5231 44.2857 50.7322 44.4958C50.9414 44.7058 51.2805 44.7059 51.4896 44.4959C51.7596 44.2249 52.1184 44.0756 52.5 44.0756C53.2878 44.0756 53.9288 44.7192 53.9288 45.5103V51.4898C53.9288 52.2809 53.2878 52.9244 52.5 52.9244C51.7122 52.9244 51.0712 52.2809 51.0712 51.4898V45.8689C51.0712 45.5718 50.8315 45.3311 50.5356 45.3311C50.2397 45.3311 50 45.5719 50 45.8689V51.4898C50 52.874 51.1214 54 52.5 54C53.8786 54 55 52.874 55 51.4898V45.5103C54.9999 44.126 53.8785 43 52.5 43Z" fill="#858585"/>
<path d="M47.4211 52.9244H44.1578V49.0378H46.2015C46.5213 49.0378 46.7804 48.797 46.7804 48.5C46.7804 48.203 46.5213 47.9622 46.2015 47.9622H44.1578V44.0756H47.4211C47.7409 44.0756 48 43.8348 48 43.5378C48 43.2408 47.7409 43 47.4211 43H43.5789C43.2592 43 43 43.2408 43 43.5378V53.4622C43 53.7592 43.2592 54 43.5789 54H47.4211C47.7409 54 48 53.7592 48 53.4622C48 53.1652 47.7409 52.9244 47.4211 52.9244Z" fill="#858585"/>
<path d="M38 47.9622C37.1119 47.9622 36.3894 47.4028 36.3894 46.7154V45.3225C36.3894 44.6349 37.1119 44.0756 38 44.0756C38.8881 44.0756 39.6106 44.6351 39.6106 45.3225C39.6106 45.6196 39.9217 45.8603 40.3053 45.8603C40.6889 45.8603 41 45.6195 41 45.3225C41 44.042 39.6542 43 37.9999 43C36.3458 43 35 44.0419 35 45.3225V46.7154C35 47.996 36.3458 49.0378 37.9999 49.0378C38.888 49.0378 39.6106 49.5972 39.6106 50.2847V51.6776C39.6106 52.3651 38.8881 52.9244 37.9999 52.9244C37.1118 52.9244 36.3894 52.365 36.3894 51.6776C36.3894 51.3806 36.0783 51.1398 35.6947 51.1398C35.3111 51.1398 35 51.3806 35 51.6776C35 52.9582 36.3458 54 37.9999 54C39.6541 54 41 52.9582 41 51.6776V50.2847C41 49.0041 39.6542 47.9622 38 47.9622Z" fill="#858585"/>
</svg>
