<svg width="90" height="79" viewBox="0 0 90 79" fill="none" xmlns="http://www.w3.org/2000/svg">
<g clip-path="url(#clip0_493_79)">
<path d="M88.6841 -0.170898H1.77077C1.35914 -0.170898 0.964384 -0.0045759 0.673326 0.291537C0.382269 0.587649 0.21875 0.989161 0.21875 1.40789V64.5593C0.21875 64.9779 0.382269 65.3794 0.673326 65.6757C0.964384 65.9717 1.35914 66.1381 1.77077 66.1381H54.0119C54.3149 66.1401 54.6117 66.052 54.866 65.8845C55.1202 65.7172 55.3208 65.4777 55.4428 65.1957C55.5649 64.9137 55.6032 64.6016 55.5531 64.2976C55.503 63.9939 55.3664 63.7116 55.1604 63.4857C55.014 63.325 54.8362 63.1971 54.6385 63.1101C54.4407 63.0231 54.2274 62.9789 54.0119 62.9805H3.3228V18.7746H87.1322V62.9805H79.372C79.0705 62.9814 78.7757 63.0717 78.5238 63.2403C78.272 63.409 78.0738 63.6487 77.9536 63.93C77.8334 64.2113 77.7964 64.5223 77.847 64.8246C77.8977 65.127 78.034 65.4079 78.239 65.6328C78.3837 65.7916 78.559 65.9182 78.7538 66.0051C78.9488 66.0921 79.1592 66.1372 79.372 66.1381H88.6841C89.0957 66.1381 89.4906 65.9717 89.7816 65.6757C90.0726 65.3794 90.2362 64.9779 90.2362 64.5593V1.40789C90.2362 0.989161 90.0726 0.587649 89.7816 0.291537C89.4906 -0.0045759 89.0957 -0.170898 88.6841 -0.170898ZM87.1322 15.617H3.3228V2.98668H87.1322V15.617Z" fill="#858585"/>
<path d="M11.8588 11.67C13.1446 11.67 14.1869 10.6097 14.1869 9.30183C14.1869 7.99377 13.1446 6.93359 11.8588 6.93359C10.5731 6.93359 9.53076 7.99377 9.53076 9.30183C9.53076 10.6097 10.5731 11.67 11.8588 11.67Z" fill="#858585"/>
<path d="M18.8432 11.67C20.1289 11.67 21.1712 10.6097 21.1712 9.30183C21.1712 7.99377 20.1289 6.93359 18.8432 6.93359C17.5574 6.93359 16.5151 7.99377 16.5151 9.30183C16.5151 10.6097 17.5574 11.67 18.8432 11.67Z" fill="#858585"/>
<path d="M25.8271 11.67C27.1127 11.67 28.155 10.6097 28.155 9.30183C28.155 7.99377 27.1127 6.93359 25.8271 6.93359C24.5413 6.93359 23.499 7.99377 23.499 9.30183C23.499 10.6097 24.5413 11.67 25.8271 11.67Z" fill="#858585"/>
<path d="M49.8836 10.8802H80.9241C81.3357 10.8802 81.7304 10.7139 82.0215 10.4178C82.3125 10.1217 82.4761 9.72017 82.4761 9.30144C82.4761 8.88283 82.3125 8.4812 82.0215 8.18509C81.7304 7.88898 81.3357 7.72266 80.9241 7.72266H49.8836C49.472 7.72266 49.0772 7.88898 48.7861 8.18509C48.4951 8.4812 48.3315 8.88283 48.3315 9.30144C48.3315 9.72017 48.4951 10.1217 48.7861 10.4178C49.0772 10.7139 49.472 10.8802 49.8836 10.8802Z" fill="#858585"/>
<path d="M60.8562 51.1397C62.8159 48.0886 63.857 44.522 63.8516 40.8775C63.8516 37.1305 62.7592 33.4675 60.7128 30.352C58.6664 27.2364 55.7576 24.8082 52.3544 23.3742C48.9514 21.9403 45.2067 21.5651 41.5938 22.2963C37.981 23.0272 34.6626 24.8316 32.0579 27.4812C29.4532 30.1306 27.6794 33.5064 26.9608 37.1815C26.2423 40.8566 26.6111 44.6658 28.0208 48.1277C29.4303 51.5894 31.8175 54.5482 34.8803 56.6301C37.943 58.7118 41.5437 59.823 45.2273 59.823C48.2945 59.8266 51.3143 59.0506 54.0117 57.5653L70.1839 75.4214C70.5946 75.8901 71.0929 76.2711 71.6499 76.5421C72.2068 76.8132 72.8109 76.9689 73.4275 77.0002H73.6293C74.8643 77.0002 76.0485 76.5011 76.9216 75.6128C77.7948 74.7246 78.2854 73.5199 78.2854 72.2638C78.2744 71.0932 77.8374 69.9684 77.0592 69.1062L60.8562 51.1397ZM45.2273 56.6654C42.1577 56.6654 39.1569 55.7394 36.6047 54.0047C34.0524 52.27 32.0632 49.8042 30.8884 46.9193C29.7137 44.0343 29.4064 40.8601 30.0053 37.7975C30.6041 34.735 32.0823 31.9217 34.2527 29.7139C36.4234 27.5059 39.1888 26.0023 42.1994 25.393C45.2101 24.7839 48.3307 25.0965 51.1666 26.2915C54.0025 27.4865 56.4265 29.51 58.1319 32.1063C59.8373 34.7026 60.7476 37.755 60.7476 40.8775C60.7476 45.0647 59.1123 49.0805 56.2018 52.0412C53.2911 55.002 49.3435 56.6654 45.2273 56.6654ZM74.7157 73.4006C74.5651 73.5402 74.3889 73.6483 74.1972 73.7188C74.0054 73.7892 73.8019 73.8205 73.5983 73.811C73.1876 73.7886 72.8024 73.6012 72.5274 73.29L56.6502 55.7655C57.4621 55.1084 58.2247 54.3906 58.9317 53.6183L74.7157 71.1586C74.8612 71.3053 74.9766 71.48 75.0554 71.6723C75.1343 71.8648 75.1748 72.0712 75.1748 72.2796C75.1748 72.4879 75.1343 72.6943 75.0554 72.8868C74.9766 73.0791 74.8612 73.2537 74.7157 73.4006Z" fill="#858585"/>
<path d="M53.5048 35.335C52.7678 35.335 52.0749 35.6231 51.5538 36.1464C51.3229 36.3781 51.3229 36.7539 51.5537 36.9858C51.7846 37.2176 52.1588 37.2177 52.3896 36.9859C52.6876 36.6868 53.0836 36.5221 53.5048 36.5221C54.3742 36.5221 55.0817 37.2324 55.0817 38.1055V44.7048C55.0817 45.5779 54.3742 46.2881 53.5048 46.2881C52.6353 46.2881 51.9278 45.5779 51.9278 44.7048V38.5013C51.9278 38.1734 51.6633 37.9077 51.3367 37.9077C51.0102 37.9077 50.7456 38.1735 50.7456 38.5013V44.7048C50.7456 46.2325 51.9833 47.4752 53.5048 47.4752C55.0263 47.4752 56.2639 46.2325 56.2639 44.7048V38.1055C56.2638 36.5777 55.0262 35.335 53.5048 35.335Z" fill="#858585"/>
<path d="M47.8994 46.2881H44.2978V41.9987H46.5534C46.9063 41.9987 47.1923 41.7329 47.1923 41.4051C47.1923 41.0773 46.9063 40.8116 46.5534 40.8116H44.2978V36.5221H47.8994C48.2524 36.5221 48.5383 36.2563 48.5383 35.9285C48.5383 35.6007 48.2524 35.335 47.8994 35.335H43.6589C43.3061 35.335 43.02 35.6007 43.02 35.9285V46.8817C43.02 47.2095 43.3061 47.4752 43.6589 47.4752H47.8994C48.2524 47.4752 48.5383 47.2095 48.5383 46.8817C48.5383 46.5539 48.2524 46.2881 47.8994 46.2881Z" fill="#858585"/>
<path d="M37.5019 40.8116C36.5217 40.8116 35.7243 40.1942 35.7243 39.4355V37.8982C35.7243 37.1393 36.5217 36.5221 37.5019 36.5221C38.4821 36.5221 39.2795 37.1396 39.2795 37.8982C39.2795 38.2261 39.6228 38.4918 40.0462 38.4918C40.4695 38.4918 40.8129 38.226 40.8129 37.8982C40.8129 36.485 39.3276 35.335 37.5018 35.335C35.6762 35.335 34.1909 36.4849 34.1909 37.8982V39.4355C34.1909 40.8489 35.6762 41.9987 37.5018 41.9987C38.482 41.9987 39.2795 42.616 39.2795 43.3748V44.9121C39.2795 45.6709 38.4821 46.2881 37.5018 46.2881C36.5216 46.2881 35.7243 45.6708 35.7243 44.9121C35.7243 44.5843 35.381 44.3185 34.9576 44.3185C34.5343 44.3185 34.1909 44.5843 34.1909 44.9121C34.1909 46.3254 35.6762 47.4752 37.5018 47.4752C39.3275 47.4752 40.8129 46.3254 40.8129 44.9121V43.3748C40.8129 41.9615 39.3276 40.8116 37.5019 40.8116Z" fill="#858585"/>
</g>
<defs>
<clipPath id="clip0_493_79">
<rect width="90" height="79" fill="white"/>
</clipPath>
</defs>
</svg>
