<svg width="84" height="84" viewBox="0 0 84 84" fill="none" xmlns="http://www.w3.org/2000/svg">
<path d="M9.73645 4.2002C6.69073 4.2002 4.19873 6.7202 4.19873 9.80014C4.19873 12.8801 6.69073 15.4001 9.73645 15.4001C12.7822 15.4001 15.2742 12.8801 15.2742 9.80014C15.2742 6.7202 12.7823 4.2002 9.73645 4.2002ZM9.73645 12.6002C8.21351 12.6002 6.96751 11.3402 6.96751 9.80014C6.96751 8.26009 8.21351 7.00009 9.73645 7.00009C11.2594 7.00009 12.5054 8.26025 12.5054 9.80014C12.5054 11.34 11.2594 12.6002 9.73645 12.6002Z" fill="black" fill-opacity="0.44"/>
<path d="M22.1964 4.2002C19.1507 4.2002 16.6587 6.7202 16.6587 9.80014C16.6587 12.8801 19.1507 15.4001 22.1964 15.4001C25.2421 15.4001 27.7341 12.8801 27.7341 9.80014C27.7341 6.7202 25.2423 4.2002 22.1964 4.2002ZM22.1964 12.6002C20.6735 12.6002 19.4275 11.3402 19.4275 9.80014C19.4275 8.26009 20.6735 7.00009 22.1964 7.00009C23.7194 7.00009 24.9654 8.26009 24.9654 9.80014C24.9654 11.3402 23.7194 12.6002 22.1964 12.6002Z" fill="black" fill-opacity="0.44"/>
<path d="M34.6564 4.2002C31.6107 4.2002 29.1187 6.7202 29.1187 9.80014C29.1187 12.8801 31.6107 15.4001 34.6564 15.4001C37.7021 15.4001 40.1941 12.8801 40.1941 9.80014C40.1941 6.7202 37.7023 4.2002 34.6564 4.2002ZM34.6564 12.6002C33.1334 12.6002 31.8874 11.3402 31.8874 9.80014C31.8874 8.26009 33.1334 7.00009 34.6564 7.00009C36.1793 7.00009 37.4253 8.26009 37.4253 9.80014C37.4253 11.3402 36.1793 12.6002 34.6564 12.6002Z" fill="black" fill-opacity="0.44"/>
<path d="M79.2357 0H4.06035C1.84513 0 0.0454102 1.81995 0.0454102 4.06005V16.8V19.6001V58.5201C0.0454102 61.0399 1.98369 63 4.47569 63H19.4726C20.1936 74.6744 29.8608 84 41.5789 84C53.297 84 62.9642 74.6744 63.6852 63H78.6821C81.1741 63 83.1124 61.0399 83.1124 58.5199V19.6001V16.8V4.06005C83.1121 1.81995 81.3124 0 79.2357 0ZM22.2469 63H29.273C29.3649 65.3627 29.7951 67.706 30.5375 70.0001H24.0793C23.0625 67.8503 22.4226 65.4875 22.2469 63ZM40.1944 50.4H34.6714C36.0191 47.6641 37.8706 45.0393 40.1944 42.5737V50.4ZM40.1944 53.2001V60.2001H32.0601C32.1854 57.8219 32.6658 55.48 33.4836 53.2001H40.1944ZM42.9631 53.2001H49.7624C50.5947 55.4794 51.0887 57.8214 51.2281 60.2001H42.9631V53.2001ZM42.9631 50.4V42.5685C45.3117 45.0342 47.1851 47.6608 48.5536 50.4H42.9631ZM46.7832 42.7232C51.1544 43.9638 54.9129 46.7248 57.4597 50.4H51.5948C50.408 47.7309 48.7981 45.161 46.7832 42.7232ZM31.6396 50.4H25.6978C28.2501 46.7171 32.0189 43.9523 36.4018 42.7155C34.4032 45.1566 32.8108 47.7292 31.6396 50.4ZM24.0793 53.2001H30.5789C29.8485 55.4792 29.4155 57.8187 29.294 60.2001H22.2469C22.4226 57.7124 23.0625 55.3496 24.0793 53.2001ZM32.0775 63H40.1944V70.0001H33.5654C32.7294 67.7142 32.2294 65.3687 32.0775 63ZM40.1944 72.7999V80.485C37.9275 78.0741 36.1121 75.4912 34.7733 72.7999H40.1944ZM42.9631 72.7999H48.5646C47.1952 75.5637 45.3179 78.2276 42.9631 80.7525V72.7999ZM42.9631 70.0001V63H51.2281C51.0891 65.3758 50.596 67.716 49.7657 70.0001H42.9631ZM54.006 63H60.9106C60.7349 65.4875 60.095 67.8503 59.0782 70.0001H52.709C53.4544 67.6969 53.8909 65.3518 54.006 63ZM53.9949 60.1999C53.8611 57.8181 53.4154 55.4787 52.6722 53.1999H59.0782C60.095 55.3496 60.7349 57.7124 60.9106 60.1999H53.9949ZM25.6978 72.7999H31.6101C32.792 75.4661 34.4 78.045 36.4002 80.484C32.018 79.2469 28.2496 76.4823 25.6978 72.7999ZM46.9263 80.4359C48.9011 78.0068 50.4776 75.4422 51.641 72.7999H57.4597C54.9406 76.4349 51.2365 79.1761 46.9263 80.4359ZM80.3431 58.5199C80.3431 59.4999 79.6509 60.1999 78.6818 60.1999H63.7298C63.0499 48.6477 53.6859 39.5281 42.2003 39.2093C42.1815 39.2088 42.1628 39.2077 42.1438 39.2072C41.956 39.2024 41.7676 39.1999 41.5786 39.1999C41.3896 39.1999 41.2012 39.2026 41.0133 39.2072C40.9945 39.2077 40.9757 39.2086 40.9569 39.2093C29.4713 39.5279 20.1073 48.6477 19.4274 60.1999H4.47536C3.5063 60.1999 2.81403 59.4999 2.81403 58.5199V19.6001H80.343V58.5199H80.3431ZM2.81435 16.8V4.06005C2.81435 3.36 3.36808 2.80005 4.06035 2.80005H79.0973C79.7896 2.80005 80.3433 3.36 80.3433 4.06005V16.8H2.81435Z" fill="black" fill-opacity="0.44"/>
</svg>
