<svg width="260" height="268" viewBox="0 0 260 268" fill="none" xmlns="http://www.w3.org/2000/svg">
<g clip-path="url(#clip0_104_21)">
<path d="M146.713 33.2931C146.713 33.2931 45.3101 45.8721 43.2733 124.204C41.2369 202.535 129.264 248.294 129.264 248.294" stroke="#FA2697" stroke-width="4"/>
<path d="M147.492 36.771C145.543 37.6706 143.236 36.8209 142.34 34.8732C141.444 32.9254 142.297 30.6172 144.247 29.7175C146.196 28.8179 148.502 29.6676 149.399 31.6154C150.295 33.5631 149.442 35.8714 147.492 36.771Z" fill="#FA2697"/>
<path d="M132.483 251.945C130.533 252.845 128.227 251.995 127.33 250.047C126.434 248.099 127.288 245.791 129.237 244.892C131.186 243.992 133.493 244.842 134.389 246.789C135.285 248.737 134.432 251.045 132.483 251.945Z" fill="#FA2697"/>
</g>
<defs>
<clipPath id="clip0_104_21">
<rect width="184.079" height="195.148" fill="white" transform="translate(-9.07617 132.174) rotate(-45.8919)"/>
</clipPath>
</defs>
</svg>
