<svg width="204" height="380" viewBox="0 0 204 380" fill="none" xmlns="http://www.w3.org/2000/svg">
<path d="M181.448 7.99946C181.448 7.99946 181.229 89.4178 180.845 231.978C180.514 354.774 180.478 368.036 180.478 368.036" fill="#00A2C1"/>
<path d="M181.448 7.99946C181.448 7.99946 181.229 89.4178 180.845 231.978C180.514 354.774 180.478 368.036 180.478 368.036" stroke="#00A2C1" stroke-width="4"/>
<path d="M184.006 14.0764C180.851 15.5383 177.108 14.165 175.647 11.0089C174.185 7.85275 175.558 4.10907 178.713 2.64711C181.868 1.18515 185.611 2.55853 187.073 5.71463C188.534 8.87073 187.161 12.6144 184.006 14.0764Z" fill="#00A2C1"/>
<path d="M183.172 377.074C180.018 378.539 176.274 377.169 174.81 374.014C173.345 370.86 174.715 367.115 177.869 365.65C181.023 364.185 184.767 365.555 186.231 368.71C187.696 371.865 186.326 375.61 183.172 377.074Z" fill="#00A2C1"/>
</svg>
