<svg width="216" height="146" viewBox="0 0 216 146" fill="none" xmlns="http://www.w3.org/2000/svg">
<g clip-path="url(#clip0_107_157)">
<path d="M141.492 2.71859C141.089 4.22893 140.652 5.80641 140.518 6.22595L140.3 6.9979L139.241 7.11537C138.67 7.1825 137.696 7.35031 137.075 7.48457C136.453 7.6356 135.865 7.70273 135.781 7.65238C135.697 7.58526 134.773 6.32664 133.749 4.81629C132.707 3.32273 131.8 2.03054 131.733 1.96342C131.649 1.86273 127.316 3.69192 127.08 3.92687C127.047 3.94365 127.45 5.5379 127.971 7.451C128.475 9.38089 128.878 10.9584 128.844 10.9751C128.407 11.294 126.593 12.7372 126.039 13.2239L125.283 13.8784L122.041 12.3177L118.8 10.757L117.372 12.7708C116.582 13.8784 115.944 14.8349 115.944 14.902C115.944 14.9692 117.086 16.1439 118.464 17.5368L120.983 20.054L120.429 21.3965C120.11 22.1349 119.774 23.0915 119.656 23.5278C119.404 24.4508 119.623 24.3836 115.776 24.6689C114.533 24.7696 113.189 24.8871 112.82 24.9374L112.131 25.0213L111.913 27.4379C111.795 28.7804 111.728 29.9216 111.795 29.9719C111.846 30.0223 113.357 30.4754 115.155 30.962C116.952 31.4487 118.514 31.885 118.615 31.9522C118.716 32.0193 118.8 32.3549 118.8 32.6905C118.8 33.0262 118.951 33.9827 119.119 34.8218C119.287 35.6441 119.404 36.3825 119.371 36.4496C119.32 36.5168 118.01 37.4565 116.448 38.5305C114.869 39.6046 113.593 40.5611 113.593 40.645C113.593 40.8296 115.423 44.8404 115.575 45.0082C115.675 45.1089 120.714 43.9007 122.26 43.3972C122.545 43.3133 122.764 43.4979 123.553 44.5048C124.057 45.1761 124.712 45.948 124.998 46.2165C125.283 46.5018 125.518 46.7703 125.518 46.8374C125.518 46.9046 124.83 48.4149 124.007 50.177C123.167 51.9558 122.495 53.4326 122.528 53.4494C122.948 53.8186 126.476 56.2184 126.61 56.2184C126.711 56.2184 127.903 55.094 129.281 53.7179L131.784 51.2174L132.64 51.6034C133.11 51.8048 134.034 52.1404 134.673 52.3586C135.328 52.56 135.899 52.7949 135.983 52.8453C136.05 52.9124 136.218 54.5066 136.369 56.403C136.52 58.2825 136.688 59.8768 136.755 59.9439C136.806 60.011 137.948 60.162 139.275 60.2795C141.24 60.4641 141.694 60.4809 141.761 60.2963C141.811 60.1788 142.248 58.6181 142.735 56.8393L143.609 53.6172L144.18 53.4997C144.499 53.4326 145.523 53.248 146.481 53.0802L148.194 52.7613L150.26 55.7317C152.242 58.5846 152.326 58.6853 152.729 58.5007C152.964 58.4 153.989 57.9301 155.03 57.4434L156.912 56.5708L156.072 53.4158C155.618 51.6873 155.198 50.1099 155.148 49.9085C155.081 49.6232 155.232 49.4218 155.954 48.9184C156.441 48.5659 157.231 47.8947 157.718 47.4416L158.591 46.6193L161.884 48.1632C163.681 49.0191 165.193 49.6903 165.226 49.6568C165.461 49.3882 167.88 45.9145 167.93 45.7634C167.964 45.6459 166.872 44.3873 165.512 42.9609C163.294 40.6618 163.026 40.3262 163.194 40.0241C163.294 39.8395 163.647 38.8997 164 37.9264L164.621 36.1643L166.687 35.9797C167.83 35.8623 169.459 35.728 170.299 35.6609L171.827 35.5434L172.029 33.5128C172.13 32.3885 172.214 31.2305 172.214 30.962V30.4586L168.77 29.5356C165.797 28.7469 165.31 28.5791 165.26 28.277C165.226 28.0924 165.075 27.1862 164.941 26.2632C164.789 25.3402 164.638 24.4676 164.571 24.3333C164.504 24.1487 165.31 23.511 167.494 22.0007L170.5 19.9365L169.459 17.6878C168.821 16.2949 168.334 15.4558 168.182 15.439C168.048 15.439 166.519 15.825 164.789 16.2781C161.581 17.134 161.128 17.2179 161.128 16.983C161.128 16.899 160.523 16.1103 159.784 15.2041L158.423 13.5763L159.868 10.522C160.674 8.84388 161.363 7.38388 161.413 7.28319C161.447 7.16572 160.557 6.42732 159.414 5.63859L157.365 4.19537L154.812 6.72939L152.259 9.2802L150.764 8.67606C149.958 8.35721 148.967 8.0048 148.597 7.90411C147.791 7.68595 147.875 8.02158 147.505 3.15491L147.304 0.520198L146.615 0.419509C145.943 0.335601 142.567 -3.14795e-05 142.332 -3.14795e-05C142.282 -3.14795e-05 141.895 1.22503 141.492 2.71859ZM144.667 12.6701C151.218 13.6602 156.744 18.2751 158.86 24.5179C159.482 26.3471 159.784 28.1931 159.784 30.2908C159.784 34.4191 158.474 38.1614 155.921 41.3331C153.451 44.4041 150.26 46.485 146.414 47.5087C144.499 48.0289 140.568 48.1464 138.62 47.7436C131.851 46.3676 126.576 41.4841 124.762 34.8889C124.158 32.7409 124.007 29.2839 124.41 27.1358C125.132 23.3432 126.879 20.1211 129.684 17.4193C133.715 13.5427 139.141 11.8142 144.667 12.6701Z" fill="#828080"/>
<path d="M41.6346 17.9059C41.5842 18.0737 40.9795 20.1211 40.274 22.4705C39.5854 24.8032 39.0143 26.7331 39.0143 26.7666C39.0143 26.7834 38.46 26.8505 37.8049 26.9177C37.133 26.9848 35.7557 27.2029 34.7311 27.4211C33.7233 27.6393 32.8834 27.8071 32.8666 27.7903C32.8498 27.7903 31.6908 26.1121 30.2799 24.0816C28.8858 22.051 27.6764 20.3225 27.6092 20.2554C27.5084 20.1547 21.6631 22.6551 21.3944 22.9068C21.3608 22.9572 21.8479 25.0213 22.4694 27.5386C23.4604 31.4655 23.578 32.12 23.3596 32.2374C22.9061 32.4891 21.092 33.882 20.1682 34.6875C19.6811 35.1239 19.1604 35.577 19.0092 35.6944C18.774 35.879 18.1358 35.6441 14.5076 33.9827C12.1897 32.9255 10.2244 32.0528 10.1405 32.0528C10.0229 32.0528 6.6635 36.4496 6.20998 37.2048C6.126 37.3558 7.11701 38.4298 9.43498 40.6954L12.7776 43.9845L12.2233 45.1928C11.9209 45.8641 11.417 47.1227 11.1147 47.9954C10.8123 48.868 10.5604 49.6064 10.5436 49.64C10.51 49.6735 8.35998 49.8749 5.73967 50.1098C3.11936 50.3448 0.918966 50.5965 0.868575 50.6468C0.767794 50.7643 -0.00486214 57.0742 0.0791222 57.1413C0.112716 57.1581 2.21233 57.6951 4.74865 58.3496L9.36779 59.5243L9.48537 60.7662C9.60295 61.9241 10.0061 64.24 10.2244 65.0455C10.3084 65.3643 9.82131 65.7503 6.39475 68.0494C4.24475 69.5094 2.41389 70.7512 2.3467 70.8183C2.22912 70.919 4.59748 76.3898 4.89983 76.7255C4.95022 76.7926 7.11701 76.2892 9.70373 75.6011C12.2737 74.9131 14.3901 74.3593 14.4069 74.3928C14.6588 74.7956 16.7248 77.3632 17.3631 78.068L18.2197 79.0246L16.0697 83.2367L13.903 87.4657L14.4237 87.8685C14.7092 88.0866 15.9354 88.9593 17.1447 89.7816L19.3451 91.2919L22.8221 87.9859C24.7201 86.1567 26.4166 84.68 26.5678 84.68C26.719 84.6967 27.4076 84.9485 28.0963 85.2505C28.785 85.5358 29.9608 85.9554 30.6998 86.1735L32.0436 86.5595L32.1444 87.3986C32.2115 87.8517 32.3459 89.899 32.4635 91.9296C32.5811 93.977 32.7322 95.7223 32.7994 95.8229C32.917 96.0243 39.283 96.6285 39.451 96.4607C39.5014 96.4103 39.9045 95.0846 40.3748 93.5407C42.1385 87.5496 42.1889 87.4489 42.592 87.365C42.7936 87.3315 43.6334 87.1972 44.4397 87.0965C45.2627 86.979 46.4553 86.7609 47.0936 86.5931L48.2694 86.3078L49.4115 87.9188C50.033 88.8082 51.2424 90.5367 52.099 91.7618C53.3756 93.591 53.7115 93.977 53.9803 93.8931C54.4002 93.7588 59.6912 91.3255 59.8088 91.2248C59.8592 91.1744 59.3889 89.1439 58.7674 86.7273C58.1627 84.294 57.6588 82.2634 57.6588 82.2131C57.6588 82.1459 58.2467 81.6593 58.969 81.139C59.6744 80.602 60.7494 79.7294 61.3541 79.1924L62.4459 78.2358L64.1256 78.991C65.0494 79.4105 66.9979 80.3167 68.4592 80.988L71.1131 82.2131L73.1287 79.5112L75.1444 76.7926L71.8018 73.4363L68.4424 70.0632L69.0975 68.7206C69.4502 67.9823 69.9373 66.7572 70.1893 65.9852C70.4412 65.2301 70.6932 64.5588 70.7604 64.5252C70.8276 64.4917 73.0112 64.2567 75.6315 64.0218C78.2518 63.7869 80.4186 63.5687 80.4354 63.5519C80.469 63.5016 81.0905 57.6783 81.0905 57.3259C81.0905 57.0406 80.4858 56.856 76.4713 55.8156L71.8522 54.6241L71.6506 52.8956C71.5498 51.939 71.3315 50.6301 71.1971 50.0091C71.0459 49.3714 70.9283 48.8177 70.9283 48.7673C70.9283 48.7337 72.7424 47.4751 74.9596 45.9816C77.1768 44.5048 78.9908 43.2629 78.9908 43.2294C78.9908 43.2126 78.3862 41.8701 77.6471 40.259C76.5889 37.9264 76.2529 37.3558 76.0178 37.3894C75.8498 37.4229 73.7166 37.9767 71.2811 38.6144C68.8455 39.2689 66.8467 39.7724 66.8131 39.7388C66.7795 39.7052 66.4268 39.2186 66.0069 38.648C65.5869 38.0942 64.7303 37.0873 64.1088 36.4328L62.9834 35.2245L65.1166 31.0627C66.2756 28.7636 67.233 26.817 67.233 26.7163C67.233 26.5485 62.1436 22.9908 61.8916 22.9908C61.7573 22.9908 59.5233 25.0717 55.7104 28.7468L54.8369 29.5691L53.0565 28.8811C52.0822 28.4951 50.7889 28.0588 50.201 27.9078L49.126 27.6225L49.042 26.6827C48.9748 26.1793 48.8405 24.1151 48.7397 22.1181C48.6221 20.1043 48.4877 18.3926 48.4205 18.3087C48.3701 18.208 46.9256 18.0234 45.2291 17.8891C41.4498 17.5703 41.7354 17.5535 41.6346 17.9059ZM46.4217 34.3687C55.6096 36.5335 62.1772 43.0448 64.0584 51.8719C64.5455 54.1374 64.5959 58.0643 64.1592 60.3466C62.3283 70.1639 54.6018 77.8834 44.6412 79.8636C36.9819 81.374 28.9362 79.0749 23.5276 73.8055C21.6127 71.9427 20.2186 69.996 19.0092 67.5459C17.8838 65.2469 17.3127 63.3841 16.9432 60.8669C15.885 53.7514 18.4885 46.3004 23.9139 40.9471C27.374 37.5404 32.1612 35.0735 37.0826 34.1505C39.0647 33.7981 44.4733 33.9156 46.4217 34.3687Z" fill="#828080"/>
<path d="M105.854 41.3228C105.35 43.1855 104.846 44.7126 104.695 44.8301C104.544 44.9476 104.157 45.0483 103.838 45.0483C103.502 45.0483 102.578 45.1825 101.755 45.3503L100.294 45.6524L98.2617 42.6653C97.1363 41.0039 96.1285 39.6949 96.0277 39.7285C95.9269 39.7789 94.8855 40.2487 93.6929 40.769C91.8117 41.6248 91.5597 41.7759 91.6605 42.0779C91.7109 42.2625 92.1308 43.84 92.5675 45.5853L93.3738 48.757L92.4331 49.4451C91.8956 49.831 91.123 50.4855 90.6863 50.8883L89.88 51.6434L88.8386 51.1736C88.2507 50.9218 86.823 50.2338 85.6472 49.6464C84.4714 49.0591 83.43 48.5724 83.346 48.5724C83.262 48.5724 82.5398 49.4954 81.7335 50.603L80.2722 52.6336L82.8253 55.2011L85.3785 57.752L84.9081 58.826C84.673 59.4133 84.2867 60.3867 84.0851 60.9908C83.7492 61.9809 83.6652 62.0816 83.2285 62.132C82.9597 62.1487 81.364 62.2662 79.6843 62.3837C77.9878 62.5179 76.5769 62.6522 76.5433 62.6857C76.4761 62.7529 75.9386 67.586 76.0058 67.6531C76.0226 67.6699 77.5847 68.123 79.4995 68.6432L82.9597 69.5998L83.0773 70.7074C83.1277 71.3115 83.2956 72.2848 83.43 72.8722C83.5644 73.4595 83.6652 73.9965 83.6652 74.0637C83.6652 74.1308 82.3382 75.0874 80.7257 76.1782C79.1132 77.269 77.7863 78.2423 77.7863 78.3094C77.7863 78.4437 79.6171 82.6223 79.7515 82.7901C79.7683 82.8237 81.3136 82.4713 83.1613 82.0014C84.9921 81.5147 86.571 81.1287 86.655 81.1287C86.739 81.1287 87.1421 81.5651 87.5453 82.0853C87.9484 82.6223 88.6035 83.411 88.9898 83.8306L89.712 84.6025L88.1331 87.8917L86.5542 91.1641L88.5027 92.557C89.5609 93.329 90.5183 94.0002 90.6023 94.0338C90.6863 94.0674 91.8956 92.9598 93.3066 91.5669L95.8429 89.0329L96.5988 89.3685C97.0187 89.5699 97.9593 89.9391 98.6984 90.2076C99.5214 90.4929 100.076 90.7949 100.16 90.9795C100.21 91.1474 100.361 92.7752 100.479 94.5876C100.596 96.4168 100.731 97.9103 100.781 97.9103C100.832 97.9103 101.873 98.0278 103.066 98.1621C104.275 98.2963 105.367 98.4138 105.518 98.4138C105.703 98.4138 105.988 97.6251 106.677 95.1749C107.164 93.4129 107.634 91.8186 107.718 91.6508C107.819 91.4662 108.071 91.3655 108.491 91.3655C108.827 91.3655 109.835 91.2145 110.708 91.0467C111.582 90.8621 112.304 90.7446 112.321 90.7614C112.321 90.7614 113.211 92.0871 114.303 93.6814C115.394 95.2924 116.251 96.6182 116.218 96.6517C116.184 96.6853 115.092 96.2322 113.782 95.628C112.455 95.0407 111.363 94.554 111.33 94.554C111.212 94.554 108.525 98.548 108.525 98.6991C108.525 98.7662 109.667 99.9241 111.061 101.25C112.825 102.945 113.564 103.75 113.496 103.935C113.446 104.086 113.11 105.076 112.741 106.133C112.237 107.56 111.985 108.08 111.766 108.114C111.598 108.13 110.003 108.298 108.222 108.466C106.425 108.651 104.947 108.818 104.913 108.852C104.812 108.953 104.46 113.702 104.544 113.786C104.594 113.836 106.156 114.272 108.037 114.742L111.43 115.632L111.817 117.629C112.018 118.736 112.237 119.76 112.287 119.894C112.354 120.079 111.565 120.733 109.448 122.227C107.836 123.368 106.509 124.375 106.509 124.442C106.509 124.509 106.946 125.483 107.5 126.573C108.037 127.681 108.508 128.671 108.541 128.772C108.592 128.889 109.885 128.587 112.136 127.966C114.068 127.412 115.663 126.976 115.663 126.993C115.697 127.144 117.158 128.889 117.813 129.56L118.636 130.433L115.613 137.079L117.645 138.471C118.771 139.243 119.728 139.864 119.795 139.864C119.862 139.864 121.021 138.723 122.382 137.314C124.75 134.897 124.868 134.78 125.305 134.947C125.54 135.048 126.497 135.384 127.421 135.686C128.345 135.988 129.118 136.256 129.151 136.273C129.185 136.29 129.369 137.918 129.571 139.898L129.941 143.472L131.032 143.573C131.637 143.64 132.762 143.724 133.552 143.791L134.98 143.909L135.467 142.012C135.719 140.972 136.139 139.394 136.357 138.488L136.794 136.877L138.104 136.676C138.826 136.575 139.817 136.391 140.304 136.256C140.791 136.139 141.245 136.072 141.312 136.105C141.362 136.139 142.353 137.465 143.479 139.042C144.604 140.603 145.578 141.861 145.646 141.845C147.04 141.291 150.013 139.747 150.013 139.596C150.013 139.462 149.593 137.884 149.072 136.072C148.568 134.259 148.165 132.766 148.199 132.732C148.232 132.715 148.703 132.329 149.257 131.893C149.811 131.457 150.584 130.786 150.97 130.433L151.659 129.762L154.834 131.205C156.564 131.994 158.075 132.648 158.159 132.648C158.26 132.648 158.982 131.725 159.755 130.601L161.166 128.554L158.546 126.02L155.925 123.502L156.328 122.579C156.547 122.076 156.883 121.119 157.084 120.482C157.269 119.827 157.471 119.273 157.504 119.24C157.538 119.206 159.167 119.022 161.132 118.82L164.71 118.468L164.895 116.034C164.996 114.692 165.046 113.551 164.979 113.484C164.928 113.433 163.366 112.997 161.535 112.527C159.688 112.057 158.159 111.638 158.126 111.604C158.092 111.571 157.991 111.067 157.907 110.48C157.807 109.892 157.622 108.886 157.471 108.265C157.319 107.644 157.219 107.107 157.252 107.073C157.286 107.056 158.613 106.1 160.209 104.975L163.098 102.928L162.711 102.055C161.603 99.6053 160.998 98.4306 160.83 98.4138C160.729 98.4138 159.15 98.8333 157.303 99.3536L153.96 100.277L153.658 99.8906C153.49 99.6724 152.835 98.9172 152.23 98.1956C151.609 97.474 151.088 96.8195 151.054 96.7524C151.037 96.6853 151.659 95.2085 152.448 93.48C153.238 91.7515 153.876 90.2747 153.876 90.2244C153.859 90.1572 152.935 89.486 151.81 88.714L149.761 87.3212L147.208 89.9223L144.671 92.5234L143.496 92.0368C142.841 91.7683 141.866 91.4326 141.312 91.2816L140.321 90.9963L139.985 87.489C139.8 85.5591 139.599 83.9313 139.532 83.8641C139.38 83.6963 134.761 83.3943 134.627 83.5285C134.56 83.5789 134.123 85.1731 133.636 87.0359L132.762 90.4425L131.771 90.56C131.234 90.6103 130.26 90.7782 129.638 90.9292C129 91.0802 128.429 91.1977 128.345 91.1977C128.21 91.1977 124.146 85.6262 124.146 85.4416C124.146 85.3913 125.288 85.9115 126.682 86.5995C128.076 87.2876 129.235 87.8414 129.269 87.8414C129.285 87.8414 129.974 86.9352 130.78 85.8276L132.242 83.8138L129.739 81.1791L127.236 78.5611L127.858 77.034C128.194 76.1949 128.53 75.2552 128.597 74.9531C128.664 74.6343 128.798 74.3657 128.899 74.3322C129.017 74.2818 130.646 74.1476 132.527 73.9966C134.425 73.8623 135.987 73.7113 136.021 73.6945C136.122 73.5938 136.592 68.8278 136.508 68.7439C136.458 68.6936 134.879 68.2237 133.014 67.7034L129.605 66.7469L129.554 66.1763C129.504 65.5722 129.084 63.1556 128.916 62.5683C128.832 62.283 129.269 61.9306 131.855 60.1853L134.862 58.1379L133.854 55.8724C133.283 54.6306 132.746 53.6069 132.628 53.6069C132.51 53.6069 130.965 53.9761 129.168 54.446C127.371 54.8991 125.859 55.2851 125.809 55.2851C125.758 55.2851 125.473 54.9494 125.17 54.5299C124.868 54.1103 124.213 53.3048 123.726 52.751L122.835 51.7274L124.33 48.6395C125.153 46.9446 125.842 45.4678 125.859 45.3671C125.909 45.1657 122.197 42.3632 121.878 42.3632C121.794 42.3632 120.618 43.454 119.275 44.7966C117.931 46.1391 116.738 47.2299 116.621 47.2299C116.503 47.2299 116.134 47.0956 115.781 46.911C115.445 46.7432 114.538 46.3908 113.799 46.1391L112.421 45.686L112.321 44.6455C112.27 44.0917 112.136 42.4807 112.035 41.1046C111.934 39.7117 111.8 38.537 111.75 38.4867C111.632 38.386 107.836 38 107.097 38C106.811 38 106.643 38.4195 105.854 41.3228ZM109.381 50.6701C116.822 51.9623 122.668 57.8862 123.894 65.3708C125.271 73.8959 120.266 82.2363 112.035 85.0389C103.116 88.1099 93.3066 83.5956 89.712 74.8021C88.3347 71.3786 88.0828 67.0993 89.057 63.508C89.4769 62.0145 90.6023 59.5476 91.5093 58.1883C93.4745 55.2012 97.1699 52.4154 100.68 51.2575C103.234 50.4184 106.677 50.1834 109.381 50.6701ZM123.491 85.0724L123.994 85.3409L121.76 86.4317C120.534 87.0359 119.51 87.5561 119.493 87.5729C119.476 87.5897 119.896 89.1503 120.434 91.0634L121.408 94.5372L120.131 95.5441C119.426 96.0979 118.636 96.7692 118.368 97.0545L117.897 97.5579L117.158 97.1887C116.755 97.0041 116.419 96.8028 116.419 96.7524C116.419 96.6853 117.444 96.1986 118.687 95.6616C119.93 95.1246 120.954 94.6379 120.954 94.6044C120.954 94.554 120.585 93.0605 120.114 91.2648C119.661 89.4692 119.275 87.9085 119.275 87.7743C119.275 87.6568 119.778 87.1701 120.417 86.7002C121.038 86.2471 121.76 85.6262 122.029 85.3409C122.6 84.7536 122.785 84.72 123.491 85.0724ZM139.515 96.4671C142.471 97.3398 144.89 98.6991 146.973 100.679C151.071 104.573 153.087 109.859 152.532 115.313C151.894 121.589 148.283 126.808 142.706 129.544C139.498 131.104 136.256 131.709 132.998 131.356C122.852 130.198 115.714 121.186 117.108 111.235C118.032 104.573 122.684 98.9005 128.966 96.8028C131.268 96.0308 132.242 95.8966 135.232 95.9637C137.634 96.014 138.205 96.0812 139.515 96.4671Z" fill="url(#paint0_linear_107_157)"/>
<path d="M183.635 71.9595L182.745 75.4837L181.469 75.6851C180.763 75.7858 179.755 75.9871 179.201 76.1214C178.664 76.2556 178.21 76.3563 178.176 76.3228C178.16 76.2892 177.253 75.0306 176.161 73.5035C175.086 71.9763 174.128 70.6674 174.061 70.6002C173.876 70.3989 169.341 72.5972 169.442 72.8657C169.61 73.3356 171.357 79.612 171.323 79.6455C170.131 80.5685 169.123 81.4076 168.569 81.9446L167.863 82.6159L164.655 81.1559C162.891 80.3671 161.396 79.7126 161.312 79.7126C161.228 79.7126 160.54 80.6356 159.784 81.7432L158.39 83.7906L160.96 86.3246L163.513 88.8586L163.227 89.6138C163.059 90.0333 162.74 90.9731 162.505 91.7115C162.27 92.4499 162.051 93.0876 162.018 93.1212C161.984 93.1715 160.355 93.3561 158.39 93.5407L154.829 93.8931L154.711 95.2356C154.644 95.974 154.56 97.1152 154.493 97.7697L154.392 98.9612L157.919 99.8506L161.447 100.74L161.564 101.512C161.665 102.234 161.984 103.962 162.203 104.885C162.287 105.271 162.051 105.472 159.347 107.386C157.735 108.527 156.425 109.517 156.458 109.584C157.046 111.027 158.558 113.947 158.726 113.947C158.86 113.947 160.439 113.528 162.27 113.007L165.579 112.084L165.999 112.621C166.234 112.923 166.906 113.729 167.494 114.417L168.552 115.642L167.107 118.797C166.318 120.542 165.663 122.019 165.663 122.103C165.663 122.187 166.587 122.892 167.729 123.664L169.778 125.057L172.314 122.422C174.75 119.888 174.867 119.787 175.254 120.005C175.472 120.123 176.446 120.492 177.421 120.828L179.184 121.432L179.52 124.872C179.705 126.751 179.907 128.379 179.974 128.48C180.058 128.597 180.982 128.715 182.241 128.782C183.434 128.849 184.509 128.933 184.66 128.983C184.878 129.034 185.08 128.413 185.819 125.526C186.608 122.455 186.76 121.986 187.062 121.935C187.264 121.902 188.103 121.751 188.926 121.6C189.766 121.449 190.623 121.297 190.858 121.23C191.261 121.146 191.446 121.365 193.294 123.949C194.402 125.493 195.36 126.819 195.41 126.903C195.46 126.986 196.519 126.55 197.762 125.946C199.458 125.107 199.996 124.771 199.962 124.553C199.928 124.402 199.492 122.825 198.988 121.079L198.098 117.891L198.635 117.471C198.921 117.236 199.71 116.582 200.382 115.994C201.054 115.424 201.642 114.954 201.692 114.954C201.742 114.954 203.221 115.609 204.984 116.397C206.748 117.203 208.243 117.773 208.31 117.706C208.377 117.622 209.032 116.699 209.755 115.642L211.065 113.746L208.495 111.178L205.925 108.611L206.53 106.949C206.866 106.043 207.201 105.07 207.285 104.801L207.437 104.298L210.981 103.945C212.946 103.744 214.575 103.559 214.609 103.526C214.693 103.425 215.062 98.6423 214.995 98.5752C214.962 98.5248 213.383 98.1053 211.468 97.6186L208.025 96.746L207.823 95.4538C207.722 94.7322 207.521 93.7085 207.386 93.1883C207.252 92.668 207.201 92.1982 207.269 92.131C207.336 92.0639 208.612 91.1577 210.091 90.1172C211.569 89.0768 212.845 88.1706 212.912 88.1035C213.131 87.9189 210.914 83.3878 210.645 83.4885C210.527 83.5389 209.066 83.9584 207.403 84.4115C205.74 84.8814 204.262 85.3009 204.111 85.3345C203.926 85.4016 203.691 85.217 203.422 84.7975C203.187 84.4451 202.515 83.6395 201.944 83.0186L200.903 81.8775L202.347 78.7057C203.137 76.9437 203.792 75.4501 203.792 75.3662C203.792 75.2823 202.868 74.5943 201.759 73.8391L199.727 72.463L197.157 75.0138L194.587 77.5814L193.848 77.2793C193.462 77.1115 192.487 76.7759 191.698 76.5241L190.27 76.071L189.934 72.4798L189.598 68.8885L188.171 68.771C187.381 68.7207 186.239 68.62 185.634 68.5529L184.526 68.4522L183.635 71.9595ZM188.423 81.3069C192.319 82.1124 196.183 84.5122 198.685 87.6503C199.945 89.2278 201.423 92.0975 201.927 93.977C203.641 100.32 201.86 106.899 197.174 111.48C190.253 118.243 179.016 118.193 172.214 111.396C168.686 107.872 166.973 103.777 166.939 98.8437C166.906 94.3126 168.3 90.5536 171.29 87.0294C173.893 83.9752 178.227 81.6425 182.376 81.072C183.938 80.8538 186.76 80.9713 188.423 81.3069Z" fill="#828080"/>
</g>
<defs>
<linearGradient id="paint0_linear_107_157" x1="165.315" y1="90.892" x2="59.3149" y2="90.892" gradientUnits="userSpaceOnUse">
<stop stop-color="#13AFB4"/>
<stop offset="1" stop-color="#0A8EC9"/>
</linearGradient>
<clipPath id="clip0_107_157">
<rect width="215" height="146" fill="white" transform="translate(0.0454102)"/>
</clipPath>
</defs>
</svg>
