<svg width="121" height="231" viewBox="0 0 121 231" fill="none" xmlns="http://www.w3.org/2000/svg">
<path d="M37.0453 173.544C37.0453 173.544 47.1257 212.237 61.1257 227.737C76.1257 207.737 81.9687 176.09 81.9687 176.09" fill="url(#paint0_linear_349_88)"/>
<path d="M37.0453 173.544C37.0453 173.544 47.1257 212.237 61.1257 227.737C76.1257 207.737 81.9687 176.09 81.9687 176.09" stroke="url(#paint1_linear_349_88)" stroke-width="4"/>
<path fill-rule="evenodd" clip-rule="evenodd" d="M58.486 5.15088C49.8757 12.0031 -16.3062 69.4337 33.8251 179.413H83.7674H83.9509C134.082 69.4342 67.9005 12.0121 59.29 5.15962L58.486 5.15088Z" stroke="#828080" stroke-width="4"/>
<path d="M26.4915 50.9945L38.6381 28.6804L55.587 9.47344L60.3892 5.80151L78.4679 24.7261L92.592 47.605L93.7219 52.4067L26.209 52.1243" stroke="#828080"/>
<path d="M19.7118 136.014C19.7118 136.014 -10.2311 135.641 7.84763 211.712C7.84763 211.712 9.54251 148.194 25.3614 156.025" stroke="#828080" stroke-width="4"/>
<path d="M100.914 136.014C100.914 136.014 130.857 135.641 112.778 211.712C112.778 211.712 111.083 148.194 95.2642 156.025" stroke="#828080" stroke-width="4"/>
<path fill-rule="evenodd" clip-rule="evenodd" d="M27.9038 164.542L35.2483 180.077L85.5299 179.794L91.462 164.542H27.9038Z" fill="#C2C2C2" stroke="#828080" stroke-width="2"/>
<path fill-rule="evenodd" clip-rule="evenodd" d="M7.00002 210.864C7.00002 210.864 4.18657 149.246 23.3839 149.007C25.5024 148.98 25.3613 155.786 25.3613 155.786L17.7343 157.48L11.8022 176.122L7.00002 210.864V210.864Z" fill="#828080"/>
<path fill-rule="evenodd" clip-rule="evenodd" d="M73.0396 164.543C74.1729 167.957 74.8427 172.721 74.5164 179.511C74.7575 179.596 75.0129 179.715 75.2767 179.852L85.5273 179.791L90.3074 167.505C90.1146 166.455 89.8918 165.519 89.6782 164.543H73.0396Z" fill="#828080"/>
<path fill-rule="evenodd" clip-rule="evenodd" d="M28.6987 165.807L34.2916 179.787L42.1215 180.347L39.8844 164.408L28.6987 165.807Z" fill="#828080"/>
<path fill-rule="evenodd" clip-rule="evenodd" d="M59.8092 4C51.1581 10.8716 -15.3385 68.4647 35.0312 178.756H85.2107H85.3953C135.765 68.4653 69.2684 10.8807 60.617 4.00876L59.8092 4Z" stroke="#828080" stroke-width="6"/>
<path d="M26.4912 51.5596H93.3681" stroke="#828080" stroke-width="4"/>
<path d="M60.2697 82.7023C63.341 82.7023 66.2866 83.9225 68.4584 86.0945C70.6303 88.2665 71.8504 91.2123 71.8504 94.284C71.8504 97.3557 70.6303 100.302 68.4585 102.474C66.2866 104.646 63.341 105.866 60.2697 105.866C57.1983 105.866 54.2527 104.646 52.0809 102.474C49.9091 100.302 48.689 97.3557 48.689 94.284C48.689 91.2123 49.9091 88.2665 52.0809 86.0945C54.2527 83.9225 57.1983 82.7023 60.2697 82.7023Z" stroke="url(#paint2_linear_349_88)" stroke-width="12.2927" stroke-linecap="round"/>
<path d="M28.751 164.824H91.4617" stroke="#828080" stroke-width="4"/>
<path d="M57.7271 135.449H62.8117V211.712H57.7271V135.449V135.449Z" fill="#F1F1F1" stroke="#828080" stroke-linecap="round"/>
<path d="M60.2697 82.7023C63.341 82.7023 66.2866 83.9225 68.4584 86.0945C70.6303 88.2665 71.8504 91.2123 71.8504 94.284C71.8504 97.3557 70.6303 100.302 68.4585 102.474C66.2866 104.646 63.341 105.866 60.2697 105.866C57.1983 105.866 54.2527 104.646 52.0809 102.474C49.9091 100.302 48.689 97.3557 48.689 94.284C48.689 91.2123 49.9091 88.2665 52.0809 86.0945C54.2527 83.9225 57.1983 82.7023 60.2697 82.7023Z" fill="#F1F1F1" stroke="url(#paint3_linear_349_88)" stroke-width="4" stroke-linecap="round"/>
<path d="M100.914 136.014C100.914 136.014 130.857 135.641 112.778 211.712C112.778 211.712 111.083 148.194 95.2642 156.025" stroke="#828080"/>
<path d="M19.7118 136.014C19.7118 136.014 -10.2311 135.641 7.84763 211.712C7.84763 211.712 9.54251 148.194 25.3614 156.025" stroke="#828080"/>
<defs>
<linearGradient id="paint0_linear_349_88" x1="61" y1="229" x2="61" y2="166.5" gradientUnits="userSpaceOnUse">
<stop stop-color="#13AFB4"/>
<stop offset="1" stop-color="#098FC9"/>
</linearGradient>
<linearGradient id="paint1_linear_349_88" x1="52.9606" y1="236.059" x2="48.1986" y2="176.245" gradientUnits="userSpaceOnUse">
<stop stop-color="#13AFB4"/>
<stop offset="0.0001" stop-color="#13AFB4"/>
<stop offset="1" stop-color="#0A8EC9"/>
</linearGradient>
<linearGradient id="paint2_linear_349_88" x1="48.689" y1="94.284" x2="71.8504" y2="94.284" gradientUnits="userSpaceOnUse">
<stop stop-color="#098FC9"/>
<stop offset="1" stop-color="#13AFB4"/>
</linearGradient>
<linearGradient id="paint3_linear_349_88" x1="48.689" y1="94.284" x2="71.8504" y2="94.284" gradientUnits="userSpaceOnUse">
<stop stop-color="#098FC9"/>
<stop offset="1" stop-color="#13AFB4"/>
</linearGradient>
</defs>
</svg>
