<svg width="769" height="710" viewBox="-34.36 -12.083 580.72 536.165" class="css-np3qrs" style="position:absolute;top:0;left:0;width:769px;height:710px"><defs><pattern id="a" x="0" y="0" width="24.165" height="24.165" patternUnits="userSpaceOnUse" class="css-1e1xezv"><path d="M0 0h24.165v24.165H0z"/><circle r="1.133"/><circle cx="24.165" r="1.133"/><circle cx="24.165" cy="24.165" r="1.133"/><circle cy="24.165" r="1.133"/></pattern></defs><path fill="url(#a)" class="css-f3jo1l" d="M0 0h512v512H0z"/><svg xmlns="http://www.w3.org/2000/svg" width="512" height="512" viewBox="0 0 512 512" style="overflow:visible" data-bbox="27.183465027726925 169.37522888183594 457.6832171365968 157.22752309902614"><path fill="#2b6c7e" text-anchor="middle" font-size="48" font-family="Padauk" letter-spacing="10" font-weight="400" data-uid="o_f4hddmgga_4" d="M165.023 315.141h1.66l-3.335 11.216h-1.41l-2.582-9.333-2.598 9.333h-1.38l-3.331-11.216h1.656l2.355 8.898 2.375-8.898h1.864l2.374 8.898 2.352-8.898Zm13.946 9.854v1.362h-7.081v-11.216h6.921v1.362h-5.388v3.454h5.232v1.324h-5.232v3.714h5.548Zm12.81-1.935q0-.923-.726-1.429-.722-.506-2.102-.506h-2.39v3.87h2.46q1.22 0 1.988-.54.77-.539.77-1.395Zm-.35-4.92q0-1.637-2.374-1.637h-2.493v3.35h2.46q2.407 0 2.407-1.712Zm1.864 5.114q0 1.324-1.008 2.214-1.012.89-2.374.89h-4.883V315.14h4.5q1.447 0 2.407.707t.96 2.066q0 .889-.584 1.57-.584.68-1.355.89.98.26 1.66 1.038.677.777.677 1.842Zm23.684-2.512q0-2.043-1.046-3.141-1.045-1.098-2.895-1.098h-1.972v8.492h1.972q1.831 0 2.884-1.116 1.057-1.117 1.057-3.137Zm1.552 0q0 .852-.164 1.63-.167.774-.57 1.518-.397.74-1.008 1.28-.614.543-1.589.863-.978.324-2.199.324h-3.468v-11.216h3.468q1.537 0 2.642.462 1.11.461 1.72 1.272.61.812.889 1.772t.279 2.095Zm12.969 4.253v1.362h-7.082v-11.216h6.921v1.362h-5.388v3.454h5.232v1.324h-5.232v3.714h5.549Zm12.965-9.854h1.746l-3.978 11.216h-1.727l-3.978-11.216h1.76l3.089 9.21 3.088-9.21Zm14.049 9.854v1.362h-7.082v-11.216h6.922v1.362h-5.389v3.454h5.232v1.324h-5.232v3.714h5.549Zm12.564 0v1.362h-6.505v-11.216h1.533v9.854h4.972Zm13.645-4.465q0-1.969-.774-3.104-.778-1.135-2.68-1.135-3.486 0-3.486 4.239 0 .941.163 1.737.168.793.551 1.474.384.681 1.09 1.072.708.394 1.683.394.978 0 1.685-.394.704-.39 1.072-1.08.365-.692.532-1.477.164-.785.164-1.726Zm1.622 0q0 1.66-.532 3.003-.532 1.343-1.708 2.206-1.176.864-2.835.864-1.656 0-2.836-.864-1.176-.863-1.727-2.206-.547-1.344-.547-3.003 0-2.494 1.306-4.045 1.31-1.552 3.804-1.552 2.497 0 3.784 1.544 1.291 1.54 1.291 4.053Zm11.868-2.144q0-1.03-.67-1.459-.674-.424-2.103-.424h-1.674v3.733h1.674q1.448 0 2.11-.42.663-.418.663-1.43Zm1.5 0q0 1.012-.358 1.682-.357.674-1.02.986-.662.313-1.343.428-.681.112-1.604.112h-1.622v4.763h-1.533v-11.216h3.155q.715 0 1.28.06.57.063 1.161.271.596.209.986.551.395.339.644.942.253.599.253 1.421Zm17.346-3.245v11.216h-1.537v-9.735l-3.59 9.735h-1.221l-3.543-9.645v9.645h-1.533v-11.216h2.456l3.245 9.054 3.264-9.054h2.46Zm13.316 9.854v1.362h-7.081v-11.216h6.921v1.362h-5.388v3.454h5.232v1.324h-5.232v3.714h5.548Zm14.797-9.854v11.216h-2.251l-4.953-9.177v9.177h-1.534v-11.216h2.196l4.972 9.21v-9.21h1.57Zm14.152 0v1.362h-3.661v9.854h-1.57v-9.854h-3.666v-1.362h8.897Z"/><path fill="#062d46" text-anchor="middle" font-size="48" font-family="Montserrat" font-weight="400" stroke="#062d46" stroke-width="2.007" data-uid="o_f4hddmgga_5" d="M73.746 263.335h3.42L65.8 297.045h-3.753l-9.872-28.754-9.922 28.754H38.54l-11.358-33.71h3.652l9.732 28.995 10.063-28.995h3.32l9.923 29.135 9.873-29.135Zm29.374 21.049-.04 1.053H81.89q.281 3.953 3.03 6.381 2.75 2.438 6.933 2.438 2.357 0 4.334-.843 1.976-.843 3.421-2.488l1.926 2.217q-1.685 2.027-4.213 3.08-2.529 1.064-5.559 1.064-3.902 0-6.912-1.666-3.01-1.655-4.695-4.595-1.686-2.94-1.686-6.641 0-3.712 1.615-6.652 1.606-2.94 4.425-4.575 2.819-1.635 6.33-1.635 3.522 0 6.311 1.635 2.8 1.635 4.384 4.555 1.586 2.91 1.586 6.672Zm-12.28-9.923q-3.653 0-6.14 2.338-2.479 2.328-2.81 6.09h17.96q-.341-3.762-2.82-6.09-2.477-2.338-6.19-2.338Zm32.317-2.94q3.562 0 6.451 1.616 2.89 1.615 4.525 4.545 1.645 2.94 1.645 6.702 0 3.752-1.645 6.692-1.635 2.94-4.525 4.575-2.89 1.635-6.451 1.635-3.18 0-5.709-1.345-2.528-1.354-4.063-3.902v5.006h-3.28v-35.737h3.42v15.22q1.586-2.458 4.074-3.732 2.478-1.274 5.558-1.274Zm-.24 22.735q2.648 0 4.815-1.234 2.167-1.224 3.391-3.491 1.234-2.258 1.234-5.147 0-2.89-1.234-5.157-1.224-2.268-3.391-3.492-2.167-1.224-4.816-1.224-2.699 0-4.836 1.224-2.147 1.224-3.37 3.492-1.235 2.267-1.235 5.157t1.234 5.147q1.224 2.267 3.371 3.49 2.137 1.235 4.836 1.235Zm33.178 2.79v-33.711h13.724q5.348 0 9.441 2.147 4.094 2.137 6.361 5.97 2.257 3.822 2.257 8.738 0 4.916-2.257 8.739-2.267 3.832-6.36 5.97-4.094 2.146-9.442 2.146h-13.724Zm3.561-3.081h9.973q4.434 0 7.755-1.756 3.321-1.765 5.147-4.866 1.836-3.11 1.836-7.153 0-4.043-1.836-7.153-1.826-3.1-5.147-4.866-3.32-1.756-7.755-1.756h-9.973v27.55Zm57.596-9.581-.04 1.053h-21.189q.281 3.953 3.03 6.381 2.749 2.438 6.933 2.438 2.357 0 4.334-.843 1.976-.843 3.42-2.488l1.927 2.217q-1.685 2.027-4.214 3.08-2.528 1.064-5.558 1.064-3.902 0-6.912-1.666-3.01-1.655-4.696-4.595-1.685-2.94-1.685-6.641 0-3.712 1.615-6.652 1.605-2.94 4.425-4.575 2.819-1.635 6.33-1.635 3.522 0 6.31 1.635 2.8 1.635 4.385 4.555 1.585 2.91 1.585 6.672Zm-12.28-9.923q-3.652 0-6.14 2.338-2.478 2.328-2.809 6.09h17.959q-.341-3.762-2.82-6.09-2.478-2.338-6.19-2.338Zm26.057 22.825q-3.08 0-5.899-.893-2.82-.893-4.404-2.237l1.535-2.7q1.595 1.255 4.003 2.048 2.408.792 5.006.792 3.472 0 5.127-1.083 1.665-1.084 1.665-3.05 0-1.405-.913-2.198-.923-.792-2.317-1.204-1.395-.41-3.702-.792-3.09-.582-4.966-1.184-1.877-.602-3.2-2.047-1.325-1.444-1.325-3.993 0-3.18 2.648-5.197 2.65-2.026 7.364-2.026 2.458 0 4.917.652 2.458.652 4.043 1.705l-1.495 2.75q-3.13-2.168-7.465-2.168-3.27 0-4.936 1.154-1.655 1.154-1.655 3.03 0 1.445.933 2.318.943.862 2.338 1.274 1.394.411 3.852.842 3.04.582 4.866 1.154 1.826.582 3.13 1.977 1.305 1.394 1.305 3.852 0 3.321-2.77 5.278-2.769 1.946-7.685 1.946Zm16.757-.24v-25.334h3.421v25.333h-3.42Zm1.736-30.872q-1.064 0-1.786-.722t-.722-1.736q0-.963.722-1.685.722-.723 1.786-.723 1.063 0 1.786.703.722.702.722 1.665 0 1.054-.722 1.776-.723.722-1.786.722Zm31.394 5.538h3.281v22.253q0 6.451-3.16 9.561-3.15 3.1-9.511 3.1-3.512 0-6.662-1.033-3.16-1.033-5.137-2.87l1.736-2.598q1.836 1.635 4.454 2.558 2.629.913 5.518.913 4.816 0 7.074-2.237 2.267-2.247 2.267-6.963v-3.23q-1.585 2.408-4.164 3.662-2.578 1.254-5.708 1.254-3.562 0-6.481-1.565-2.91-1.565-4.575-4.385-1.656-2.819-1.656-6.38 0-3.562 1.656-6.351 1.665-2.8 4.554-4.334 2.89-1.545 6.502-1.545 3.23 0 5.829 1.304 2.598 1.294 4.183 3.752v-4.866Zm-9.671 21.34q2.739 0 4.956-1.184 2.217-1.184 3.441-3.3 1.234-2.118 1.234-4.816 0-2.7-1.234-4.786-1.224-2.097-3.42-3.28-2.188-1.175-4.977-1.175-2.75 0-4.936 1.154-2.197 1.154-3.421 3.27-1.235 2.118-1.235 4.817 0 2.698 1.235 4.815 1.224 2.117 3.42 3.301 2.188 1.184 4.937 1.184Zm35.444-21.53q4.765 0 7.584 2.769 2.81 2.769 2.81 8.066v14.688h-3.412v-14.347q0-3.953-1.976-6.02-1.977-2.076-5.638-2.076-4.094 0-6.472 2.438-2.387 2.428-2.387 6.712v13.293h-3.422v-25.333h3.281v4.676q1.395-2.318 3.873-3.592t5.759-1.274Zm65.104-8.187h2.94v33.71h-3.421v-26.968l-13.244 22.684h-1.685l-13.243-22.544v26.828h-3.421v-33.71h2.94l14.637 24.992 14.497-24.992Zm22.052 8.187q4.967 0 7.615 2.478 2.649 2.478 2.649 7.344v15.701h-3.28v-3.953q-1.155 1.977-3.392 3.09-2.237 1.104-5.317 1.104-4.244 0-6.742-2.027-2.509-2.016-2.509-5.337 0-3.23 2.338-5.207 2.338-1.977 7.434-1.977h8.047v-1.535q0-3.28-1.826-4.986-1.836-1.706-5.348-1.706-2.408 0-4.625.793t-3.802 2.187l-1.545-2.548q1.926-1.635 4.625-2.528t5.678-.893Zm-1.204 23.065q2.89 0 4.967-1.324 2.066-1.325 3.08-3.823v-4.143h-7.946q-6.502 0-6.502 4.524 0 2.218 1.686 3.492t4.715 1.274Zm32.898-1.535 1.204 2.448q-.963.873-2.388 1.324-1.415.462-2.96.462-3.561 0-5.488-1.926-1.926-1.927-1.926-5.438v-15.32h-4.525v-2.89h4.525v-5.538h3.421v5.538h7.705v2.89h-7.705v15.12q0 2.267 1.124 3.45 1.134 1.174 3.25 1.174 1.064 0 2.047-.33.994-.342 1.716-.964Zm10.693-16.373q1.204-2.559 3.582-3.853 2.387-1.304 5.899-1.304v3.32l-.813-.05q-4.003 0-6.26 2.458-2.268 2.458-2.268 6.893v12.902h-3.42v-25.333h3.28v4.967Zm15.645 20.366v-25.333h3.421v25.333h-3.421Zm1.736-30.87q-1.064 0-1.786-.723-.723-.722-.723-1.736 0-.963.723-1.685.722-.723 1.786-.723 1.063 0 1.785.703.723.702.723 1.665 0 1.054-.723 1.776-.722.722-1.785.722Zm31.254 30.87h-3.903l-8.036-10.595-8.097 10.595h-3.852L471 284.043l-9.54-12.33h3.852l7.615 9.922 7.605-9.923h3.752l-9.531 12.33 10.113 13.003Z"/><g fill="rgba(10, 142, 201, 1)" data-uid="o_f4hddmgga_6"><path d="m226.643 224.024-3.65 4.538 12.24 12.241 4.543-3.714a33.377 33.377 0 0 0 7.044 2.904l.626 5.936h10.798v-9.12h9.534c.929 2.604 3.395 4.485 6.315 4.485 3.71 0 6.728-3.018 6.728-6.728s-3.018-6.729-6.728-6.729c-2.92 0-5.386 1.881-6.315 4.486h-9.534v-4.486H256c-11.13 0-20.185-9.054-20.185-20.185s9.055-20.185 20.185-20.185h2.243v-4.486h9.534c.929 2.605 3.395 4.486 6.315 4.486 3.71 0 6.728-3.019 6.728-6.728s-3.018-6.729-6.728-6.729c-2.92 0-5.386 1.88-6.315 4.486h-9.534v-9.121h-11.001l-.583 5.984a33.287 33.287 0 0 0-7.03 2.935l-4.539-3.65-12.245 12.24 3.718 4.543a33.406 33.406 0 0 0-2.904 7.044l-5.936.626v17.314l5.984.583a33.275 33.275 0 0 0 2.935 7.03zm0 0" data-uid="o_f4hddmgga_7"/><path d="M287.55 200.924c-2.92 0-5.386 1.88-6.316 4.485h-29.718v4.486h29.718c.93 2.605 3.396 4.486 6.316 4.486 3.71 0 6.728-3.019 6.728-6.729s-3.018-6.728-6.728-6.728zm0 0" data-uid="o_f4hddmgga_8"/><path d="M288.066 183c-3.942-.295-7.245 2.829-7.245 6.71 0 .279.05.545.083.815l-7.341 3.67h-19.418c-7.645 0-13.843 6.198-13.843 13.844 0 7.218 5.851 13.07 13.07 13.07h20.19l7.342 3.67c-.034.27-.083.536-.083.816 0 3.88 3.303 7.004 7.245 6.709 3.29-.247 5.946-2.903 6.193-6.193.296-3.943-2.828-7.245-6.71-7.245a6.691 6.691 0 0 0-4.656 1.892l-8.27-4.135h-20.865a8.971 8.971 0 0 1 0-17.942h20.865l8.27-4.135a6.694 6.694 0 0 0 4.657 1.892c3.88 0 7.005-3.302 6.709-7.245-.247-3.29-2.903-5.945-6.193-6.192zm0 0" data-uid="o_f4hddmgga_9"/></g></svg><path d="M-34.36-12.083h580.72v536.166H-34.36zM0 0v512h512V0z" class="css-1m35ybi"/><g class="css-0" fill="transparent" stroke=""><path class="_sw1 css-jzojre" d="M152.047 314.933h207.275v11.67H152.047ZM27.183 261.308h457.684v45.318H27.183Z"/></g><g class="css-1ypmc9g"><path d="M252.224 207.651h7.552M256 203.875v7.552" class="css-1ixbp0l"/><path class="_sw2" fill="transparent" d="M217.724 169.375h76.552v76.552h-76.552Z"/><path data-handle="nw" class="se css-n4pqaj" d="M208.662 160.313h18.124v18.124h-18.124z"/><g class="css-u2lqgb"><path class="noevent" d="M256 169.375v-12.082"/><path fill="transparent" d="M243.917 133.127h24.165v36.248h-24.165z"/></g><path data-handle="n" class="s css-n4pqaj" d="M246.938 160.313h18.124v18.124h-18.124z"/><path data-handle="ne" class="sw css-n4pqaj" d="M285.214 160.313h18.124v18.124h-18.124z"/><path data-handle="e" class="w css-n4pqaj" d="M285.214 198.589h18.124v18.124h-18.124z"/><path data-handle="se" class="nw css-n4pqaj" d="M285.214 236.865h18.124v18.124h-18.124z"/><path data-handle="s" class="n css-n4pqaj" d="M246.938 236.865h18.124v18.124h-18.124z"/><path data-handle="sw" class="ne css-n4pqaj" d="M208.662 236.865h18.124v18.124h-18.124z"/><path data-handle="w" class="e css-n4pqaj" d="M208.662 198.589h18.124v18.124h-18.124z"/></g><g class="css-0" fill="transparent" stroke=""><path class="_sd _sw1 css-jzojre" d="M217.724 169.375h63.096v76.552h-63.096Z"/><path class="_sd _sw1 css-jzojre" d="M251.514 200.923h42.762v13.456h-42.762Z"/><path class="_sd _sw1 css-jzojre" d="M240.3 182.981h53.976v49.34h-53.975Z"/></g></svg>